<svg xmlns="http://www.w3.org/2000/svg" xmlns:xlink="http://www.w3.org/1999/xlink" width="60" zoomAndPan="magnify" viewBox="0 0 45 44.999999" height="60" preserveAspectRatio="xMidYMid meet" version="1.0"><defs><clipPath id="797f92ac7e"><path d="M 7.222656 25 L 16 25 L 16 40.5 L 7.222656 40.5 Z M 7.222656 25 " clip-rule="nonzero"/></clipPath><clipPath id="f31c58ad36"><path d="M 29 25 L 37.972656 25 L 37.972656 40.5 L 29 40.5 Z M 29 25 " clip-rule="nonzero"/></clipPath><clipPath id="86a76418e1"><path d="M 13 4.5 L 17 4.5 L 17 9 L 13 9 Z M 13 4.5 " clip-rule="nonzero"/></clipPath></defs><rect x="-4.5" width="54" fill="#ffffff" y="-4.5" height="53.999999" fill-opacity="1"/><rect x="-4.5" width="54" fill="#ffffff" y="-4.5" height="53.999999" fill-opacity="1"/><g clip-path="url(#797f92ac7e)"><path fill="#1b7a94" d="M 13.605469 40.5 L 9.242188 40.5 C 8.972656 40.496094 8.714844 40.441406 8.46875 40.335938 C 8.222656 40.230469 8.003906 40.082031 7.816406 39.890625 C 7.625 39.699219 7.480469 39.480469 7.378906 39.230469 C 7.277344 38.980469 7.226562 38.722656 7.226562 38.453125 L 7.226562 27.203125 C 7.226562 26.933594 7.277344 26.671875 7.382812 26.421875 C 7.484375 26.171875 7.632812 25.953125 7.824219 25.761719 C 8.015625 25.570312 8.234375 25.425781 8.484375 25.320312 C 8.734375 25.21875 8.996094 25.167969 9.265625 25.167969 L 13.628906 25.167969 C 13.898438 25.167969 14.160156 25.21875 14.410156 25.320312 C 14.65625 25.425781 14.878906 25.570312 15.070312 25.761719 C 15.261719 25.953125 15.40625 26.171875 15.511719 26.421875 C 15.617188 26.671875 15.667969 26.933594 15.667969 27.203125 L 15.667969 38.460938 C 15.667969 38.730469 15.613281 38.992188 15.511719 39.246094 C 15.40625 39.496094 15.253906 39.71875 15.0625 39.910156 C 14.867188 40.101562 14.644531 40.246094 14.394531 40.347656 C 14.140625 40.453125 13.878906 40.503906 13.605469 40.5 Z M 9.242188 26.257812 C 8.988281 26.265625 8.769531 26.359375 8.589844 26.542969 C 8.40625 26.726562 8.316406 26.945312 8.316406 27.203125 L 8.316406 38.453125 C 8.316406 38.714844 8.410156 38.941406 8.59375 39.125 C 8.78125 39.3125 9.003906 39.40625 9.265625 39.410156 L 13.628906 39.410156 C 13.890625 39.410156 14.113281 39.316406 14.300781 39.132812 C 14.484375 38.945312 14.578125 38.722656 14.578125 38.460938 L 14.578125 27.203125 C 14.578125 26.941406 14.484375 26.71875 14.296875 26.535156 C 14.113281 26.351562 13.890625 26.257812 13.628906 26.257812 Z M 9.242188 26.257812 " fill-opacity="1" fill-rule="nonzero"/></g><g clip-path="url(#f31c58ad36)"><path fill="#1b7a94" d="M 35.734375 40.5 L 31.371094 40.5 C 31.101562 40.5 30.839844 40.449219 30.589844 40.34375 C 30.339844 40.242188 30.117188 40.09375 29.925781 39.902344 C 29.730469 39.710938 29.582031 39.488281 29.480469 39.238281 C 29.375 38.988281 29.320312 38.726562 29.320312 38.453125 L 29.320312 27.203125 C 29.320312 26.933594 29.375 26.671875 29.476562 26.421875 C 29.582031 26.171875 29.730469 25.953125 29.921875 25.761719 C 30.113281 25.570312 30.332031 25.425781 30.582031 25.320312 C 30.832031 25.21875 31.089844 25.167969 31.363281 25.167969 L 35.726562 25.167969 C 35.996094 25.167969 36.257812 25.21875 36.507812 25.320312 C 36.757812 25.421875 36.976562 25.570312 37.167969 25.761719 C 37.359375 25.953125 37.507812 26.171875 37.613281 26.421875 C 37.71875 26.671875 37.769531 26.929688 37.769531 27.203125 L 37.769531 38.460938 C 37.769531 38.730469 37.71875 38.988281 37.613281 39.238281 C 37.511719 39.488281 37.363281 39.707031 37.171875 39.898438 C 36.984375 40.089844 36.761719 40.238281 36.515625 40.339844 C 36.265625 40.445312 36.007812 40.5 35.734375 40.5 Z M 31.371094 26.257812 C 31.113281 26.257812 30.886719 26.351562 30.703125 26.535156 C 30.519531 26.71875 30.425781 26.941406 30.421875 27.203125 L 30.421875 38.453125 C 30.425781 38.582031 30.449219 38.707031 30.5 38.824219 C 30.550781 38.941406 30.621094 39.046875 30.710938 39.136719 C 30.804688 39.226562 30.910156 39.292969 31.027344 39.339844 C 31.148438 39.390625 31.269531 39.410156 31.398438 39.410156 L 35.761719 39.410156 C 36.019531 39.398438 36.234375 39.304688 36.414062 39.121094 C 36.589844 38.9375 36.679688 38.714844 36.679688 38.460938 L 36.679688 27.203125 C 36.679688 26.941406 36.585938 26.71875 36.398438 26.535156 C 36.214844 26.351562 35.992188 26.257812 35.730469 26.257812 Z M 31.371094 26.257812 " fill-opacity="1" fill-rule="nonzero"/></g><path fill="#1b7a94" d="M 27.199219 37.226562 L 17.800781 37.226562 C 17.664062 37.226562 17.539062 37.183594 17.4375 37.089844 L 14.734375 34.683594 C 14.613281 34.574219 14.554688 34.441406 14.554688 34.277344 L 14.554688 23.558594 C 14.554688 23.40625 14.609375 23.277344 14.714844 23.171875 C 14.824219 23.066406 14.949219 23.011719 15.101562 23.011719 L 29.898438 23.011719 C 30.050781 23.011719 30.179688 23.066406 30.285156 23.171875 C 30.390625 23.277344 30.445312 23.40625 30.445312 23.558594 L 30.445312 34.261719 C 30.445312 34.425781 30.382812 34.5625 30.257812 34.667969 L 27.558594 37.074219 C 27.460938 37.171875 27.339844 37.222656 27.199219 37.226562 Z M 18.007812 36.136719 L 26.992188 36.136719 L 29.355469 34.03125 L 29.355469 24.105469 L 15.648438 24.105469 L 15.648438 34.015625 Z M 18.007812 36.136719 " fill-opacity="1" fill-rule="nonzero"/><path fill="#1b7a94" d="M 32.085938 24.105469 L 12.910156 24.105469 C 12.757812 24.105469 12.628906 24.050781 12.523438 23.945312 C 12.417969 23.835938 12.363281 23.707031 12.363281 23.558594 L 12.363281 21.921875 C 12.363281 21.726562 12.402344 21.539062 12.472656 21.363281 C 12.546875 21.183594 12.652344 21.023438 12.792969 20.886719 C 12.929688 20.75 13.085938 20.640625 13.265625 20.566406 C 13.445312 20.492188 13.632812 20.457031 13.824219 20.453125 L 31.171875 20.453125 C 31.363281 20.457031 31.550781 20.492188 31.730469 20.566406 C 31.910156 20.640625 32.066406 20.75 32.203125 20.886719 C 32.339844 21.023438 32.445312 21.183594 32.519531 21.363281 C 32.59375 21.539062 32.632812 21.726562 32.632812 21.921875 L 32.632812 23.558594 C 32.632812 23.707031 32.578125 23.835938 32.472656 23.945312 C 32.367188 24.050781 32.238281 24.105469 32.085938 24.105469 Z M 13.453125 23.011719 L 31.542969 23.011719 L 31.542969 21.921875 C 31.542969 21.816406 31.507812 21.730469 31.433594 21.65625 C 31.363281 21.582031 31.273438 21.546875 31.171875 21.546875 L 13.824219 21.546875 C 13.722656 21.546875 13.632812 21.585938 13.5625 21.65625 C 13.492188 21.730469 13.453125 21.820312 13.453125 21.921875 Z M 13.453125 23.011719 " fill-opacity="1" fill-rule="nonzero"/><path fill="#1b7a94" d="M 27.113281 18.304688 L 17.882812 18.304688 C 17.570312 18.304688 17.269531 18.246094 16.980469 18.125 C 16.691406 18.007812 16.4375 17.839844 16.214844 17.617188 C 15.992188 17.398438 15.820312 17.144531 15.699219 16.855469 C 15.578125 16.566406 15.519531 16.265625 15.515625 15.953125 L 15.515625 11.832031 C 15.515625 11.515625 15.574219 11.214844 15.695312 10.921875 C 15.816406 10.632812 15.984375 10.375 16.207031 10.152344 C 16.429688 9.929688 16.6875 9.757812 16.976562 9.640625 C 17.265625 9.519531 17.570312 9.457031 17.882812 9.457031 L 27.113281 9.457031 C 27.425781 9.457031 27.730469 9.519531 28.019531 9.640625 C 28.308594 9.757812 28.566406 9.929688 28.789062 10.152344 C 29.011719 10.375 29.179688 10.632812 29.300781 10.921875 C 29.421875 11.214844 29.480469 11.515625 29.480469 11.832031 L 29.480469 15.953125 C 29.476562 16.265625 29.414062 16.566406 29.292969 16.855469 C 29.171875 17.144531 29.003906 17.398438 28.78125 17.617188 C 28.558594 17.839844 28.304688 18.007812 28.015625 18.125 C 27.726562 18.246094 27.425781 18.304688 27.113281 18.304688 Z M 17.882812 10.550781 C 17.714844 10.550781 17.550781 10.582031 17.394531 10.648438 C 17.238281 10.714844 17.101562 10.804688 16.980469 10.925781 C 16.859375 11.046875 16.769531 11.183594 16.703125 11.339844 C 16.640625 11.5 16.605469 11.660156 16.605469 11.832031 L 16.605469 15.953125 C 16.605469 16.125 16.640625 16.285156 16.703125 16.441406 C 16.769531 16.597656 16.859375 16.738281 16.980469 16.855469 C 17.101562 16.976562 17.238281 17.070312 17.394531 17.132812 C 17.550781 17.199219 17.714844 17.230469 17.882812 17.230469 L 27.113281 17.230469 C 27.28125 17.230469 27.445312 17.199219 27.601562 17.132812 C 27.757812 17.070312 27.894531 16.976562 28.015625 16.855469 C 28.132812 16.738281 28.226562 16.597656 28.292969 16.441406 C 28.355469 16.285156 28.390625 16.125 28.390625 15.953125 L 28.390625 11.832031 C 28.390625 11.660156 28.355469 11.5 28.292969 11.339844 C 28.226562 11.183594 28.136719 11.046875 28.015625 10.925781 C 27.894531 10.804688 27.757812 10.714844 27.601562 10.648438 C 27.445312 10.582031 27.28125 10.550781 27.113281 10.550781 Z M 17.882812 10.550781 " fill-opacity="1" fill-rule="nonzero"/><path fill="#1b7a94" d="M 19.902344 13.832031 C 19.703125 13.832031 19.515625 13.792969 19.332031 13.71875 C 19.148438 13.640625 18.988281 13.53125 18.847656 13.394531 C 18.707031 13.253906 18.601562 13.089844 18.527344 12.910156 C 18.449219 12.726562 18.414062 12.535156 18.414062 12.339844 C 18.414062 12.1875 18.464844 12.058594 18.570312 11.953125 C 18.679688 11.847656 18.808594 11.792969 18.957031 11.792969 C 19.109375 11.792969 19.238281 11.847656 19.34375 11.953125 C 19.449219 12.058594 19.503906 12.1875 19.503906 12.339844 C 19.488281 12.457031 19.523438 12.5625 19.601562 12.652344 C 19.683594 12.742188 19.785156 12.789062 19.902344 12.789062 C 20.023438 12.789062 20.125 12.742188 20.207031 12.652344 C 20.285156 12.5625 20.320312 12.457031 20.304688 12.339844 C 20.304688 12.1875 20.359375 12.058594 20.464844 11.953125 C 20.570312 11.847656 20.699219 11.792969 20.851562 11.792969 C 21 11.792969 21.128906 11.847656 21.234375 11.953125 C 21.34375 12.058594 21.394531 12.1875 21.394531 12.339844 C 21.394531 12.535156 21.359375 12.726562 21.28125 12.910156 C 21.207031 13.09375 21.097656 13.253906 20.957031 13.394531 C 20.816406 13.535156 20.65625 13.644531 20.472656 13.71875 C 20.289062 13.792969 20.101562 13.832031 19.902344 13.832031 Z M 19.902344 13.832031 " fill-opacity="1" fill-rule="nonzero"/><path fill="#1b7a94" d="M 25.089844 13.832031 C 24.890625 13.832031 24.699219 13.796875 24.515625 13.71875 C 24.332031 13.644531 24.167969 13.539062 24.027344 13.398438 C 23.886719 13.257812 23.777344 13.09375 23.703125 12.910156 C 23.625 12.726562 23.589844 12.535156 23.589844 12.339844 C 23.589844 12.1875 23.640625 12.058594 23.75 11.953125 C 23.855469 11.847656 23.984375 11.792969 24.132812 11.792969 C 24.285156 11.792969 24.414062 11.847656 24.519531 11.953125 C 24.625 12.058594 24.679688 12.1875 24.679688 12.339844 C 24.664062 12.457031 24.699219 12.5625 24.777344 12.652344 C 24.859375 12.742188 24.960938 12.789062 25.082031 12.789062 C 25.203125 12.789062 25.300781 12.742188 25.382812 12.652344 C 25.460938 12.5625 25.496094 12.457031 25.480469 12.339844 C 25.480469 12.1875 25.535156 12.058594 25.640625 11.953125 C 25.746094 11.847656 25.875 11.792969 26.027344 11.792969 C 26.175781 11.792969 26.304688 11.847656 26.414062 11.953125 C 26.519531 12.058594 26.574219 12.1875 26.574219 12.339844 C 26.574219 12.535156 26.535156 12.726562 26.460938 12.90625 C 26.382812 13.089844 26.277344 13.25 26.136719 13.390625 C 26 13.53125 25.839844 13.640625 25.65625 13.714844 C 25.476562 13.792969 25.285156 13.832031 25.089844 13.832031 Z M 25.089844 13.832031 " fill-opacity="1" fill-rule="nonzero"/><path fill="#1b7a94" d="M 23.195312 34.941406 L 21.800781 34.941406 C 21.5625 34.941406 21.394531 34.832031 21.296875 34.613281 L 20.917969 33.746094 L 20.140625 33.300781 L 19.226562 33.410156 C 18.980469 33.441406 18.800781 33.351562 18.679688 33.136719 L 17.980469 31.925781 C 17.863281 31.71875 17.875 31.523438 18.015625 31.332031 L 18.558594 30.5625 L 18.558594 29.667969 L 18.015625 28.898438 C 17.875 28.707031 17.863281 28.507812 17.980469 28.304688 L 18.679688 27.09375 C 18.800781 26.882812 18.984375 26.792969 19.226562 26.824219 L 20.167969 26.921875 L 20.941406 26.480469 L 21.324219 25.609375 C 21.421875 25.390625 21.589844 25.28125 21.828125 25.28125 L 23.222656 25.28125 C 23.460938 25.28125 23.628906 25.390625 23.726562 25.609375 L 24.105469 26.480469 L 24.882812 26.921875 L 25.824219 26.824219 C 26.066406 26.792969 26.25 26.882812 26.371094 27.09375 L 27.070312 28.304688 C 27.1875 28.507812 27.175781 28.707031 27.035156 28.898438 L 26.492188 29.667969 L 26.492188 30.554688 L 27.035156 31.324219 C 27.175781 31.515625 27.1875 31.714844 27.070312 31.921875 L 26.316406 33.132812 C 26.195312 33.34375 26.015625 33.433594 25.769531 33.402344 L 24.828125 33.300781 L 24.050781 33.746094 L 23.671875 34.613281 C 23.582031 34.820312 23.421875 34.929688 23.195312 34.941406 Z M 22.152344 33.851562 L 22.839844 33.851562 L 23.152344 33.140625 C 23.203125 33.03125 23.277344 32.949219 23.382812 32.890625 L 24.472656 32.261719 C 24.574219 32.203125 24.6875 32.179688 24.804688 32.191406 L 25.574219 32.28125 L 25.917969 31.683594 L 25.460938 31.058594 C 25.390625 30.960938 25.355469 30.855469 25.355469 30.738281 L 25.355469 29.488281 C 25.355469 29.367188 25.390625 29.261719 25.460938 29.164062 L 25.917969 28.539062 L 25.5625 27.953125 L 24.792969 28.042969 C 24.671875 28.050781 24.5625 28.019531 24.460938 27.953125 L 23.371094 27.332031 C 23.265625 27.273438 23.191406 27.1875 23.140625 27.078125 L 22.832031 26.367188 L 22.152344 26.367188 L 21.84375 27.078125 C 21.796875 27.1875 21.71875 27.273438 21.613281 27.332031 L 20.535156 27.953125 C 20.429688 28.015625 20.320312 28.039062 20.203125 28.027344 L 19.433594 27.953125 L 19.089844 28.550781 L 19.546875 29.175781 C 19.617188 29.273438 19.652344 29.378906 19.652344 29.5 L 19.652344 30.738281 C 19.652344 30.855469 19.617188 30.960938 19.546875 31.058594 L 19.089844 31.683594 L 19.433594 32.28125 L 20.203125 32.191406 C 20.320312 32.179688 20.429688 32.203125 20.535156 32.261719 L 21.625 32.890625 C 21.730469 32.949219 21.804688 33.03125 21.855469 33.140625 Z M 22.152344 33.851562 " fill-opacity="1" fill-rule="nonzero"/><path fill="#1b7a94" d="M 22.496094 31.691406 C 22.289062 31.691406 22.085938 31.652344 21.890625 31.570312 C 21.695312 31.492188 21.523438 31.375 21.375 31.226562 C 21.226562 31.078125 21.109375 30.90625 21.03125 30.710938 C 20.949219 30.515625 20.910156 30.3125 20.910156 30.101562 C 20.910156 29.894531 20.953125 29.691406 21.035156 29.496094 C 21.117188 29.300781 21.230469 29.128906 21.382812 28.984375 C 21.53125 28.835938 21.703125 28.722656 21.898438 28.640625 C 22.09375 28.5625 22.296875 28.523438 22.507812 28.527344 C 22.71875 28.53125 22.921875 28.570312 23.117188 28.65625 C 23.308594 28.738281 23.480469 28.855469 23.625 29.007812 C 23.773438 29.15625 23.886719 29.332031 23.964844 29.527344 C 24.039062 29.722656 24.078125 29.925781 24.074219 30.136719 C 24.070312 30.34375 24.027344 30.542969 23.945312 30.730469 C 23.863281 30.921875 23.75 31.089844 23.601562 31.234375 C 23.457031 31.378906 23.285156 31.492188 23.09375 31.570312 C 22.902344 31.652344 22.703125 31.691406 22.496094 31.691406 Z M 22.496094 29.625 C 22.371094 29.636719 22.269531 29.691406 22.183594 29.785156 C 22.101562 29.875 22.058594 29.984375 22.058594 30.113281 C 22.058594 30.238281 22.101562 30.347656 22.183594 30.441406 C 22.269531 30.535156 22.371094 30.585938 22.496094 30.601562 C 22.621094 30.585938 22.726562 30.535156 22.8125 30.441406 C 22.894531 30.347656 22.9375 30.238281 22.9375 30.113281 C 22.9375 29.984375 22.894531 29.875 22.8125 29.785156 C 22.726562 29.691406 22.621094 29.636719 22.496094 29.625 Z M 22.496094 29.625 " fill-opacity="1" fill-rule="nonzero"/><path fill="#1b7a94" d="M 12.855469 31.449219 C 12.503906 31.449219 12.167969 31.382812 11.84375 31.253906 C 11.707031 31.199219 11.605469 31.101562 11.546875 30.964844 C 11.484375 30.824219 11.484375 30.683594 11.539062 30.546875 C 11.59375 30.40625 11.691406 30.304688 11.832031 30.246094 C 11.96875 30.1875 12.109375 30.183594 12.25 30.238281 C 12.703125 30.421875 13.453125 30.539062 14.757812 29.5 C 14.875 29.402344 15.011719 29.363281 15.160156 29.382812 C 15.3125 29.398438 15.433594 29.464844 15.527344 29.585938 C 15.621094 29.703125 15.65625 29.835938 15.640625 29.984375 C 15.625 30.132812 15.558594 30.253906 15.441406 30.347656 C 14.707031 31.019531 13.84375 31.386719 12.855469 31.449219 Z M 12.855469 31.449219 " fill-opacity="1" fill-rule="nonzero"/><path fill="#1b7a94" d="M 12.855469 33.867188 C 12.503906 33.867188 12.167969 33.800781 11.84375 33.671875 C 11.707031 33.617188 11.605469 33.519531 11.546875 33.382812 C 11.488281 33.246094 11.484375 33.105469 11.539062 32.96875 C 11.59375 32.824219 11.691406 32.726562 11.828125 32.664062 C 11.96875 32.601562 12.109375 32.601562 12.25 32.65625 C 12.703125 32.84375 13.453125 32.957031 14.757812 31.921875 C 14.875 31.824219 15.007812 31.785156 15.160156 31.800781 C 15.308594 31.816406 15.433594 31.882812 15.527344 32 C 15.621094 32.121094 15.660156 32.253906 15.644531 32.40625 C 15.625 32.554688 15.558594 32.675781 15.441406 32.769531 C 14.707031 33.441406 13.84375 33.804688 12.855469 33.867188 Z M 12.855469 33.867188 " fill-opacity="1" fill-rule="nonzero"/><path fill="#1b7a94" d="M 12.855469 36.289062 C 12.503906 36.289062 12.167969 36.222656 11.84375 36.09375 C 11.703125 36.039062 11.605469 35.941406 11.546875 35.800781 C 11.484375 35.664062 11.484375 35.523438 11.539062 35.382812 C 11.59375 35.242188 11.691406 35.144531 11.832031 35.082031 C 11.96875 35.023438 12.109375 35.023438 12.25 35.078125 C 12.703125 35.257812 13.453125 35.378906 14.757812 34.335938 C 14.875 34.238281 15.011719 34.195312 15.164062 34.207031 C 15.316406 34.222656 15.441406 34.289062 15.539062 34.410156 C 15.632812 34.53125 15.671875 34.667969 15.652344 34.820312 C 15.632812 34.972656 15.5625 35.09375 15.441406 35.1875 C 14.707031 35.859375 13.84375 36.226562 12.855469 36.289062 Z M 12.855469 36.289062 " fill-opacity="1" fill-rule="nonzero"/><path fill="#1b7a94" d="M 12.855469 29.046875 C 12.503906 29.042969 12.167969 28.980469 11.84375 28.847656 C 11.703125 28.792969 11.605469 28.695312 11.546875 28.558594 C 11.484375 28.417969 11.484375 28.28125 11.539062 28.140625 C 11.59375 28 11.691406 27.898438 11.832031 27.839844 C 11.96875 27.78125 12.109375 27.777344 12.25 27.835938 C 12.703125 28.015625 13.453125 28.132812 14.757812 27.085938 C 14.878906 26.992188 15.011719 26.953125 15.164062 26.972656 C 15.316406 26.992188 15.4375 27.058594 15.53125 27.179688 C 15.628906 27.300781 15.664062 27.433594 15.648438 27.585938 C 15.628906 27.738281 15.558594 27.859375 15.441406 27.953125 C 14.707031 28.625 13.84375 28.988281 12.855469 29.046875 Z M 12.855469 29.046875 " fill-opacity="1" fill-rule="nonzero"/><path fill="#1b7a94" d="M 12.855469 38.707031 C 12.503906 38.703125 12.167969 38.640625 11.84375 38.507812 C 11.703125 38.453125 11.605469 38.355469 11.546875 38.21875 C 11.484375 38.078125 11.484375 37.941406 11.539062 37.800781 C 11.59375 37.660156 11.691406 37.558594 11.832031 37.5 C 11.96875 37.441406 12.109375 37.4375 12.25 37.496094 C 12.703125 37.675781 13.453125 37.792969 14.757812 36.757812 C 14.875 36.660156 15.011719 36.617188 15.164062 36.628906 C 15.316406 36.644531 15.441406 36.710938 15.539062 36.832031 C 15.632812 36.953125 15.671875 37.089844 15.652344 37.242188 C 15.632812 37.394531 15.5625 37.515625 15.441406 37.609375 C 14.707031 38.277344 13.84375 38.644531 12.855469 38.707031 Z M 12.855469 38.707031 " fill-opacity="1" fill-rule="nonzero"/><path fill="#1b7a94" d="M 32.148438 31.449219 C 31.15625 31.390625 30.296875 31.027344 29.5625 30.359375 C 29.445312 30.265625 29.378906 30.144531 29.359375 29.996094 C 29.34375 29.847656 29.382812 29.714844 29.472656 29.597656 C 29.566406 29.476562 29.691406 29.410156 29.839844 29.394531 C 29.992188 29.375 30.125 29.414062 30.242188 29.507812 C 31.542969 30.550781 32.300781 30.429688 32.753906 30.25 C 32.894531 30.195312 33.03125 30.195312 33.171875 30.257812 C 33.308594 30.316406 33.40625 30.414062 33.460938 30.554688 C 33.519531 30.695312 33.515625 30.835938 33.457031 30.972656 C 33.394531 31.113281 33.296875 31.210938 33.15625 31.265625 C 32.832031 31.390625 32.496094 31.453125 32.148438 31.449219 Z M 32.148438 31.449219 " fill-opacity="1" fill-rule="nonzero"/><path fill="#1b7a94" d="M 32.148438 33.867188 C 31.15625 33.808594 30.296875 33.445312 29.5625 32.777344 C 29.441406 32.683594 29.375 32.558594 29.359375 32.410156 C 29.339844 32.257812 29.378906 32.125 29.472656 32.007812 C 29.570312 31.890625 29.691406 31.824219 29.839844 31.804688 C 29.992188 31.789062 30.125 31.832031 30.242188 31.925781 C 31.546875 32.960938 32.300781 32.847656 32.753906 32.660156 C 32.894531 32.605469 33.03125 32.609375 33.171875 32.667969 C 33.308594 32.730469 33.40625 32.832031 33.460938 32.972656 C 33.515625 33.113281 33.511719 33.25 33.453125 33.386719 C 33.394531 33.523438 33.292969 33.621094 33.15625 33.675781 C 32.832031 33.804688 32.496094 33.867188 32.148438 33.867188 Z M 32.148438 33.867188 " fill-opacity="1" fill-rule="nonzero"/><path fill="#1b7a94" d="M 32.148438 36.289062 C 31.15625 36.230469 30.296875 35.863281 29.5625 35.199219 C 29.441406 35.105469 29.375 34.980469 29.355469 34.832031 C 29.339844 34.679688 29.378906 34.546875 29.472656 34.425781 C 29.566406 34.308594 29.6875 34.238281 29.839844 34.222656 C 29.988281 34.203125 30.125 34.242188 30.242188 34.335938 C 31.542969 35.378906 32.292969 35.257812 32.753906 35.078125 C 32.890625 35.023438 33.03125 35.023438 33.171875 35.085938 C 33.308594 35.144531 33.40625 35.242188 33.460938 35.382812 C 33.515625 35.523438 33.515625 35.664062 33.457031 35.800781 C 33.394531 35.941406 33.296875 36.035156 33.15625 36.09375 C 32.832031 36.222656 32.496094 36.289062 32.148438 36.289062 Z M 32.148438 36.289062 " fill-opacity="1" fill-rule="nonzero"/><path fill="#1b7a94" d="M 32.148438 29.046875 C 31.15625 28.988281 30.292969 28.625 29.554688 27.953125 C 29.4375 27.859375 29.371094 27.738281 29.355469 27.585938 C 29.339844 27.4375 29.378906 27.304688 29.472656 27.183594 C 29.570312 27.066406 29.691406 27 29.839844 26.984375 C 29.992188 26.96875 30.125 27.007812 30.242188 27.105469 C 31.542969 28.152344 32.300781 28.03125 32.753906 27.851562 C 32.890625 27.796875 33.03125 27.796875 33.171875 27.855469 C 33.308594 27.917969 33.40625 28.015625 33.460938 28.15625 C 33.515625 28.296875 33.515625 28.4375 33.457031 28.574219 C 33.394531 28.710938 33.296875 28.808594 33.15625 28.867188 C 32.832031 28.988281 32.496094 29.050781 32.148438 29.046875 Z M 32.148438 29.046875 " fill-opacity="1" fill-rule="nonzero"/><path fill="#1b7a94" d="M 32.140625 38.707031 C 31.152344 38.644531 30.292969 38.28125 29.5625 37.613281 C 29.457031 37.515625 29.402344 37.398438 29.390625 37.257812 C 29.382812 37.117188 29.421875 36.988281 29.507812 36.878906 C 29.597656 36.769531 29.710938 36.699219 29.851562 36.679688 C 29.992188 36.65625 30.121094 36.683594 30.238281 36.761719 C 31.542969 37.773438 32.316406 37.675781 32.753906 37.496094 C 32.890625 37.4375 33.03125 37.441406 33.167969 37.5 C 33.308594 37.5625 33.40625 37.660156 33.460938 37.800781 C 33.515625 37.941406 33.515625 38.078125 33.453125 38.21875 C 33.394531 38.355469 33.296875 38.453125 33.15625 38.507812 C 32.832031 38.640625 32.492188 38.707031 32.140625 38.707031 Z M 32.140625 38.707031 " fill-opacity="1" fill-rule="nonzero"/><path fill="#1b7a94" d="M 24.804688 21.535156 L 20.191406 21.535156 C 20.039062 21.535156 19.910156 21.480469 19.804688 21.375 C 19.699219 21.269531 19.644531 21.140625 19.644531 20.988281 L 19.644531 17.761719 C 19.644531 17.609375 19.699219 17.480469 19.804688 17.375 C 19.910156 17.269531 20.039062 17.214844 20.191406 17.214844 L 24.804688 17.214844 C 24.957031 17.214844 25.085938 17.269531 25.191406 17.375 C 25.296875 17.480469 25.351562 17.609375 25.351562 17.761719 L 25.351562 20.988281 C 25.351562 21.140625 25.296875 21.269531 25.191406 21.375 C 25.085938 21.480469 24.957031 21.535156 24.804688 21.535156 Z M 20.734375 20.445312 L 24.257812 20.445312 L 24.257812 18.304688 L 20.734375 18.304688 Z M 20.734375 20.445312 " fill-opacity="1" fill-rule="nonzero"/><path fill="#1b7a94" d="M 23.648438 15.953125 L 21.347656 15.953125 C 21.195312 15.953125 21.066406 15.902344 20.960938 15.792969 C 20.855469 15.6875 20.800781 15.558594 20.800781 15.410156 C 20.800781 15.257812 20.855469 15.128906 20.960938 15.023438 C 21.066406 14.917969 21.195312 14.863281 21.347656 14.863281 L 23.648438 14.863281 C 23.800781 14.863281 23.929688 14.917969 24.035156 15.023438 C 24.140625 15.128906 24.195312 15.257812 24.195312 15.410156 C 24.195312 15.558594 24.140625 15.6875 24.035156 15.792969 C 23.929688 15.902344 23.800781 15.953125 23.648438 15.953125 Z M 23.648438 15.953125 " fill-opacity="1" fill-rule="nonzero"/><path fill="#1b7a94" d="M 16.0625 16.140625 C 15.761719 16.140625 15.472656 16.082031 15.195312 15.96875 C 14.921875 15.855469 14.675781 15.691406 14.464844 15.480469 C 14.253906 15.265625 14.089844 15.023438 13.972656 14.746094 C 13.859375 14.46875 13.800781 14.179688 13.800781 13.882812 C 13.800781 13.582031 13.859375 13.292969 13.972656 13.015625 C 14.089844 12.742188 14.253906 12.496094 14.464844 12.285156 C 14.675781 12.074219 14.921875 11.910156 15.195312 11.796875 C 15.472656 11.679688 15.761719 11.625 16.0625 11.625 C 16.210938 11.625 16.339844 11.675781 16.445312 11.785156 C 16.554688 11.890625 16.605469 12.019531 16.605469 12.167969 C 16.605469 12.320312 16.554688 12.449219 16.445312 12.554688 C 16.339844 12.660156 16.210938 12.714844 16.0625 12.714844 C 15.90625 12.714844 15.757812 12.746094 15.613281 12.804688 C 15.472656 12.863281 15.34375 12.945312 15.234375 13.054688 C 15.125 13.164062 15.042969 13.292969 14.984375 13.433594 C 14.925781 13.578125 14.894531 13.726562 14.894531 13.882812 C 14.894531 14.035156 14.925781 14.183594 14.984375 14.328125 C 15.042969 14.472656 15.125 14.597656 15.234375 14.707031 C 15.34375 14.816406 15.472656 14.902344 15.613281 14.960938 C 15.757812 15.019531 15.90625 15.050781 16.0625 15.050781 C 16.210938 15.050781 16.339844 15.101562 16.445312 15.207031 C 16.554688 15.316406 16.605469 15.445312 16.605469 15.59375 C 16.605469 15.746094 16.554688 15.875 16.445312 15.980469 C 16.339844 16.085938 16.210938 16.140625 16.0625 16.140625 Z M 16.0625 16.140625 " fill-opacity="1" fill-rule="nonzero"/><path fill="#1b7a94" d="M 28.933594 16.140625 C 28.785156 16.140625 28.65625 16.085938 28.546875 15.980469 C 28.441406 15.875 28.390625 15.746094 28.390625 15.59375 C 28.390625 15.445312 28.441406 15.316406 28.546875 15.207031 C 28.65625 15.101562 28.785156 15.050781 28.933594 15.050781 C 29.089844 15.050781 29.238281 15.019531 29.382812 14.960938 C 29.523438 14.902344 29.648438 14.816406 29.757812 14.707031 C 29.867188 14.597656 29.953125 14.472656 30.011719 14.328125 C 30.070312 14.183594 30.101562 14.035156 30.101562 13.882812 C 30.101562 13.726562 30.070312 13.578125 30.011719 13.433594 C 29.953125 13.292969 29.867188 13.164062 29.757812 13.054688 C 29.648438 12.945312 29.523438 12.863281 29.382812 12.804688 C 29.238281 12.746094 29.089844 12.714844 28.933594 12.714844 C 28.785156 12.714844 28.65625 12.660156 28.546875 12.554688 C 28.441406 12.449219 28.390625 12.320312 28.390625 12.167969 C 28.390625 12.019531 28.441406 11.890625 28.546875 11.785156 C 28.65625 11.675781 28.785156 11.625 28.933594 11.625 C 29.234375 11.625 29.523438 11.679688 29.796875 11.796875 C 30.074219 11.910156 30.320312 12.074219 30.53125 12.285156 C 30.742188 12.496094 30.90625 12.742188 31.019531 13.019531 C 31.136719 13.292969 31.191406 13.582031 31.191406 13.882812 C 31.191406 14.179688 31.136719 14.46875 31.019531 14.746094 C 30.90625 15.023438 30.742188 15.265625 30.53125 15.480469 C 30.320312 15.691406 30.074219 15.851562 29.796875 15.96875 C 29.523438 16.082031 29.234375 16.140625 28.933594 16.140625 Z M 28.933594 16.140625 " fill-opacity="1" fill-rule="nonzero"/><path fill="#1b7a94" d="M 14.980469 13.105469 C 14.832031 13.105469 14.703125 13.054688 14.597656 12.949219 C 14.488281 12.839844 14.4375 12.710938 14.4375 12.5625 L 14.4375 7.695312 C 14.4375 7.546875 14.488281 7.417969 14.597656 7.3125 C 14.703125 7.203125 14.832031 7.152344 14.980469 7.152344 C 15.132812 7.152344 15.261719 7.203125 15.367188 7.3125 C 15.472656 7.417969 15.527344 7.546875 15.527344 7.695312 L 15.527344 12.5625 C 15.527344 12.710938 15.472656 12.839844 15.367188 12.949219 C 15.261719 13.054688 15.132812 13.105469 14.980469 13.105469 Z M 14.980469 13.105469 " fill-opacity="1" fill-rule="nonzero"/><g clip-path="url(#86a76418e1)"><path fill="#1b7a94" d="M 14.980469 8.242188 C 14.734375 8.242188 14.496094 8.195312 14.265625 8.097656 C 14.035156 8.003906 13.835938 7.871094 13.660156 7.695312 C 13.484375 7.519531 13.347656 7.316406 13.253906 7.085938 C 13.15625 6.859375 13.109375 6.617188 13.109375 6.371094 C 13.109375 6.121094 13.15625 5.882812 13.253906 5.65625 C 13.347656 5.425781 13.484375 5.222656 13.660156 5.046875 C 13.835938 4.871094 14.035156 4.738281 14.265625 4.640625 C 14.496094 4.546875 14.734375 4.5 14.980469 4.5 C 15.230469 4.5 15.46875 4.546875 15.699219 4.640625 C 15.925781 4.738281 16.128906 4.871094 16.304688 5.046875 C 16.480469 5.222656 16.613281 5.425781 16.710938 5.65625 C 16.804688 5.882812 16.851562 6.121094 16.851562 6.371094 C 16.851562 6.617188 16.804688 6.855469 16.707031 7.085938 C 16.613281 7.316406 16.476562 7.515625 16.304688 7.691406 C 16.128906 7.867188 15.925781 8.003906 15.695312 8.097656 C 15.46875 8.191406 15.230469 8.242188 14.980469 8.242188 Z M 14.980469 5.589844 C 14.765625 5.589844 14.582031 5.667969 14.429688 5.820312 C 14.277344 5.972656 14.203125 6.15625 14.203125 6.371094 C 14.203125 6.585938 14.277344 6.769531 14.429688 6.921875 C 14.582031 7.074219 14.765625 7.152344 14.980469 7.152344 C 15.195312 7.152344 15.378906 7.074219 15.53125 6.921875 C 15.683594 6.769531 15.761719 6.585938 15.761719 6.371094 C 15.761719 6.15625 15.683594 5.972656 15.53125 5.820312 C 15.378906 5.667969 15.195312 5.589844 14.980469 5.589844 Z M 14.980469 5.589844 " fill-opacity="1" fill-rule="nonzero"/></g></svg>