<svg xmlns="http://www.w3.org/2000/svg" xmlns:xlink="http://www.w3.org/1999/xlink" width="60" zoomAndPan="magnify" viewBox="0 0 45 44.999999" height="60" preserveAspectRatio="xMidYMid meet" version="1.0"><defs><clipPath id="16ea0506cf"><path d="M 7.910156 3.824219 L 37.160156 3.824219 L 37.160156 41.324219 L 7.910156 41.324219 Z M 7.910156 3.824219 " clip-rule="nonzero"/></clipPath></defs><rect x="-4.5" width="54" fill="#ffffff" y="-4.5" height="53.999999" fill-opacity="1"/><rect x="-4.5" width="54" fill="#ffffff" y="-4.5" height="53.999999" fill-opacity="1"/><g clip-path="url(#16ea0506cf)"><path fill="#1b7a94" d="M 35.921875 3.824219 L 9.078125 3.824219 C 8.433594 3.824219 7.910156 4.347656 7.910156 4.992188 L 7.910156 39.421875 L 9.078125 39.421875 L 9.078125 40.578125 C 9.078125 40.90625 9.332031 41.171875 9.644531 41.171875 L 13.179688 41.171875 C 13.492188 41.171875 13.746094 40.90625 13.746094 40.578125 L 13.746094 39.421875 L 31.253906 39.421875 L 31.253906 40.578125 C 31.253906 40.90625 31.507812 41.171875 31.820312 41.171875 L 35.355469 41.171875 C 35.667969 41.171875 35.921875 40.90625 35.921875 40.578125 L 35.921875 39.421875 L 37.089844 39.421875 L 37.089844 4.992188 C 37.089844 4.347656 36.566406 3.824219 35.921875 3.824219 Z M 8.496094 4.992188 C 8.496094 4.671875 8.757812 4.410156 9.078125 4.410156 L 35.921875 4.410156 C 36.242188 4.410156 36.503906 4.671875 36.503906 4.992188 L 36.503906 6.742188 L 8.496094 6.742188 Z M 13.164062 40.578125 C 13.164062 40.582031 13.164062 40.585938 13.160156 40.589844 L 9.664062 40.589844 C 9.664062 40.585938 9.660156 40.582031 9.660156 40.578125 L 9.660156 39.421875 L 13.164062 39.421875 Z M 35.339844 40.578125 C 35.339844 40.582031 35.335938 40.585938 35.335938 40.589844 L 31.839844 40.589844 C 31.835938 40.585938 31.835938 40.582031 31.835938 40.578125 L 31.835938 39.421875 L 35.339844 39.421875 Z M 8.496094 38.839844 L 8.496094 7.328125 L 36.503906 7.328125 L 36.503906 38.839844 Z M 8.496094 38.839844 " fill-opacity="1" fill-rule="nonzero"/></g><path fill="#1b7a94" d="M 31.835938 9.078125 L 10.828125 9.078125 C 10.507812 9.078125 10.246094 9.339844 10.246094 9.660156 L 10.246094 33.292969 C 10.246094 33.617188 10.507812 33.878906 10.828125 33.878906 L 31.835938 33.878906 C 32.15625 33.878906 32.421875 33.617188 32.421875 33.292969 L 32.421875 9.660156 C 32.421875 9.339844 32.15625 9.078125 31.835938 9.078125 Z M 27.3125 29.648438 L 27.3125 27.460938 C 27.3125 27.21875 27.511719 27.019531 27.753906 27.019531 L 28.917969 27.019531 C 29.160156 27.019531 29.355469 27.21875 29.355469 27.460938 L 29.355469 29.648438 Z M 28.917969 26.730469 L 27.753906 26.730469 C 27.351562 26.730469 27.023438 27.058594 27.023438 27.460938 L 27.023438 29.648438 L 24.980469 29.648438 L 24.980469 27.460938 C 24.980469 27.058594 24.652344 26.730469 24.25 26.730469 L 23.082031 26.730469 C 22.679688 26.730469 22.355469 27.058594 22.355469 27.460938 L 22.355469 29.648438 L 20.3125 29.648438 L 20.3125 27.460938 C 20.3125 27.058594 19.984375 26.730469 19.582031 26.730469 L 18.414062 26.730469 C 18.011719 26.730469 17.6875 27.058594 17.6875 27.460938 L 17.6875 29.648438 L 15.644531 29.648438 L 15.644531 27.460938 C 15.644531 27.058594 15.316406 26.730469 14.914062 26.730469 L 13.746094 26.730469 C 13.34375 26.730469 13.015625 27.058594 13.015625 27.460938 L 13.015625 29.648438 L 10.828125 29.648438 L 10.828125 25.855469 L 31.835938 25.855469 L 31.835938 29.648438 L 29.648438 29.648438 L 29.648438 27.460938 C 29.648438 27.058594 29.320312 26.730469 28.917969 26.730469 Z M 22.644531 29.648438 L 22.644531 27.460938 C 22.644531 27.21875 22.84375 27.019531 23.082031 27.019531 L 24.25 27.019531 C 24.492188 27.019531 24.6875 27.21875 24.6875 27.460938 L 24.6875 29.648438 Z M 17.976562 29.648438 L 17.976562 27.460938 C 17.976562 27.21875 18.171875 27.019531 18.414062 27.019531 L 19.582031 27.019531 C 19.824219 27.019531 20.019531 27.21875 20.019531 27.460938 L 20.019531 29.648438 Z M 13.308594 29.648438 L 13.308594 27.460938 C 13.308594 27.21875 13.503906 27.019531 13.746094 27.019531 L 14.914062 27.019531 C 15.15625 27.019531 15.351562 27.21875 15.351562 27.460938 L 15.351562 29.648438 Z M 15.351562 13.308594 L 13.308594 13.308594 L 13.308594 11.121094 C 13.308594 10.878906 13.503906 10.683594 13.746094 10.683594 L 14.914062 10.683594 C 15.15625 10.683594 15.351562 10.878906 15.351562 11.121094 Z M 31.835938 13.597656 L 31.835938 17.394531 L 29.648438 17.394531 L 29.648438 15.203125 C 29.648438 14.800781 29.320312 14.476562 28.917969 14.476562 L 27.753906 14.476562 C 27.351562 14.476562 27.023438 14.800781 27.023438 15.203125 L 27.023438 17.394531 L 24.980469 17.394531 L 24.980469 15.203125 C 24.980469 14.800781 24.652344 14.476562 24.25 14.476562 L 23.082031 14.476562 C 22.679688 14.476562 22.355469 14.800781 22.355469 15.203125 L 22.355469 17.394531 L 20.3125 17.394531 L 20.3125 15.203125 C 20.3125 14.800781 19.984375 14.476562 19.582031 14.476562 L 18.414062 14.476562 C 18.011719 14.476562 17.6875 14.800781 17.6875 15.203125 L 17.6875 17.394531 L 15.644531 17.394531 L 15.644531 15.203125 C 15.644531 14.800781 15.316406 14.476562 14.914062 14.476562 L 13.746094 14.476562 C 13.34375 14.476562 13.015625 14.800781 13.015625 15.203125 L 13.015625 17.394531 L 10.828125 17.394531 L 10.828125 13.597656 Z M 20.019531 13.308594 L 17.976562 13.308594 L 17.976562 11.121094 C 17.976562 10.878906 18.171875 10.683594 18.414062 10.683594 L 19.582031 10.683594 C 19.824219 10.683594 20.019531 10.878906 20.019531 11.121094 Z M 24.6875 13.308594 L 22.644531 13.308594 L 22.644531 11.121094 C 22.644531 10.878906 22.84375 10.683594 23.082031 10.683594 L 24.25 10.683594 C 24.492188 10.683594 24.6875 10.878906 24.6875 11.121094 Z M 29.355469 13.308594 L 27.3125 13.308594 L 27.3125 11.121094 C 27.3125 10.878906 27.511719 10.683594 27.753906 10.683594 L 28.917969 10.683594 C 29.160156 10.683594 29.355469 10.878906 29.355469 11.121094 Z M 31.835938 21.476562 L 29.648438 21.476562 L 29.648438 19.289062 C 29.648438 18.886719 29.320312 18.558594 28.917969 18.558594 L 27.753906 18.558594 C 27.351562 18.558594 27.023438 18.886719 27.023438 19.289062 L 27.023438 21.476562 L 24.980469 21.476562 L 24.980469 19.289062 C 24.980469 18.886719 24.652344 18.558594 24.25 18.558594 L 23.082031 18.558594 C 22.679688 18.558594 22.355469 18.886719 22.355469 19.289062 L 22.355469 21.476562 L 20.3125 21.476562 L 20.3125 19.289062 C 20.3125 18.886719 19.984375 18.558594 19.582031 18.558594 L 18.414062 18.558594 C 18.011719 18.558594 17.6875 18.886719 17.6875 19.289062 L 17.6875 21.476562 L 15.644531 21.476562 L 15.644531 19.289062 C 15.644531 18.886719 15.316406 18.558594 14.914062 18.558594 L 13.746094 18.558594 C 13.34375 18.558594 13.015625 18.886719 13.015625 19.289062 L 13.015625 21.476562 L 10.828125 21.476562 L 10.828125 17.683594 L 31.835938 17.683594 Z M 31.835938 25.5625 L 29.648438 25.5625 L 29.648438 23.375 C 29.648438 22.972656 29.320312 22.644531 28.917969 22.644531 L 27.753906 22.644531 C 27.351562 22.644531 27.023438 22.972656 27.023438 23.375 L 27.023438 25.5625 L 24.980469 25.5625 L 24.980469 23.375 C 24.980469 22.972656 24.652344 22.644531 24.25 22.644531 L 23.082031 22.644531 C 22.679688 22.644531 22.355469 22.972656 22.355469 23.375 L 22.355469 25.5625 L 20.3125 25.5625 L 20.3125 23.375 C 20.3125 22.972656 19.984375 22.644531 19.582031 22.644531 L 18.414062 22.644531 C 18.011719 22.644531 17.6875 22.972656 17.6875 23.375 L 17.6875 25.5625 L 15.644531 25.5625 L 15.644531 23.375 C 15.644531 22.972656 15.316406 22.644531 14.914062 22.644531 L 13.746094 22.644531 C 13.34375 22.644531 13.015625 22.972656 13.015625 23.375 L 13.015625 25.5625 L 10.828125 25.5625 L 10.828125 21.769531 L 31.835938 21.769531 Z M 27.3125 25.5625 L 27.3125 23.375 C 27.3125 23.132812 27.511719 22.9375 27.753906 22.9375 L 28.917969 22.9375 C 29.160156 22.9375 29.355469 23.132812 29.355469 23.375 L 29.355469 25.5625 Z M 22.644531 25.5625 L 22.644531 23.375 C 22.644531 23.132812 22.84375 22.9375 23.082031 22.9375 L 24.25 22.9375 C 24.492188 22.9375 24.6875 23.132812 24.6875 23.375 L 24.6875 25.5625 Z M 17.976562 25.5625 L 17.976562 23.375 C 17.976562 23.132812 18.171875 22.9375 18.414062 22.9375 L 19.582031 22.9375 C 19.824219 22.9375 20.019531 23.132812 20.019531 23.375 L 20.019531 25.5625 Z M 13.308594 25.5625 L 13.308594 23.375 C 13.308594 23.132812 13.503906 22.9375 13.746094 22.9375 L 14.914062 22.9375 C 15.15625 22.9375 15.351562 23.132812 15.351562 23.375 L 15.351562 25.5625 Z M 15.351562 21.476562 L 13.308594 21.476562 L 13.308594 19.289062 C 13.308594 19.046875 13.503906 18.851562 13.746094 18.851562 L 14.914062 18.851562 C 15.15625 18.851562 15.351562 19.046875 15.351562 19.289062 Z M 20.019531 21.476562 L 17.976562 21.476562 L 17.976562 19.289062 C 17.976562 19.046875 18.171875 18.851562 18.414062 18.851562 L 19.582031 18.851562 C 19.824219 18.851562 20.019531 19.046875 20.019531 19.289062 Z M 24.6875 21.476562 L 22.644531 21.476562 L 22.644531 19.289062 C 22.644531 19.046875 22.84375 18.851562 23.082031 18.851562 L 24.25 18.851562 C 24.492188 18.851562 24.6875 19.046875 24.6875 19.289062 Z M 29.355469 21.476562 L 27.3125 21.476562 L 27.3125 19.289062 C 27.3125 19.046875 27.511719 18.851562 27.753906 18.851562 L 28.917969 18.851562 C 29.160156 18.851562 29.355469 19.046875 29.355469 19.289062 Z M 15.351562 17.394531 L 13.308594 17.394531 L 13.308594 15.203125 C 13.308594 14.964844 13.503906 14.765625 13.746094 14.765625 L 14.914062 14.765625 C 15.15625 14.765625 15.351562 14.964844 15.351562 15.203125 Z M 20.019531 17.394531 L 17.976562 17.394531 L 17.976562 15.203125 C 17.976562 14.964844 18.171875 14.765625 18.414062 14.765625 L 19.582031 14.765625 C 19.824219 14.765625 20.019531 14.964844 20.019531 15.203125 Z M 24.6875 17.394531 L 22.644531 17.394531 L 22.644531 15.203125 C 22.644531 14.964844 22.84375 14.765625 23.082031 14.765625 L 24.25 14.765625 C 24.492188 14.765625 24.6875 14.964844 24.6875 15.203125 Z M 29.355469 17.394531 L 27.3125 17.394531 L 27.3125 15.203125 C 27.3125 14.964844 27.511719 14.765625 27.753906 14.765625 L 28.917969 14.765625 C 29.160156 14.765625 29.355469 14.964844 29.355469 15.203125 Z M 10.828125 9.660156 L 31.835938 9.660156 L 31.835938 13.308594 L 29.648438 13.308594 L 29.648438 11.121094 C 29.648438 10.71875 29.320312 10.390625 28.917969 10.390625 L 27.753906 10.390625 C 27.351562 10.390625 27.023438 10.71875 27.023438 11.121094 L 27.023438 13.308594 L 24.980469 13.308594 L 24.980469 11.121094 C 24.980469 10.71875 24.652344 10.390625 24.25 10.390625 L 23.082031 10.390625 C 22.679688 10.390625 22.355469 10.71875 22.355469 11.121094 L 22.355469 13.308594 L 20.3125 13.308594 L 20.3125 11.121094 C 20.3125 10.71875 19.984375 10.390625 19.582031 10.390625 L 18.414062 10.390625 C 18.011719 10.390625 17.6875 10.71875 17.6875 11.121094 L 17.6875 13.308594 L 15.644531 13.308594 L 15.644531 11.121094 C 15.644531 10.71875 15.316406 10.390625 14.914062 10.390625 L 13.746094 10.390625 C 13.34375 10.390625 13.015625 10.71875 13.015625 11.121094 L 13.015625 13.308594 L 10.828125 13.308594 Z M 15.351562 33.292969 L 13.308594 33.292969 L 13.308594 31.542969 C 13.308594 31.300781 13.503906 31.105469 13.746094 31.105469 L 14.914062 31.105469 C 15.15625 31.105469 15.351562 31.300781 15.351562 31.542969 Z M 20.019531 33.292969 L 17.976562 33.292969 L 17.976562 31.542969 C 17.976562 31.300781 18.171875 31.105469 18.414062 31.105469 L 19.582031 31.105469 C 19.824219 31.105469 20.019531 31.300781 20.019531 31.542969 Z M 24.6875 33.292969 L 22.644531 33.292969 L 22.644531 31.542969 C 22.644531 31.300781 22.84375 31.105469 23.082031 31.105469 L 24.25 31.105469 C 24.492188 31.105469 24.6875 31.300781 24.6875 31.542969 Z M 29.355469 33.292969 L 27.3125 33.292969 L 27.3125 31.542969 C 27.3125 31.300781 27.511719 31.105469 27.753906 31.105469 L 28.917969 31.105469 C 29.160156 31.105469 29.355469 31.300781 29.355469 31.542969 Z M 31.835938 33.292969 L 29.648438 33.292969 L 29.648438 31.542969 C 29.648438 31.140625 29.320312 30.816406 28.917969 30.816406 L 27.753906 30.816406 C 27.351562 30.816406 27.023438 31.140625 27.023438 31.542969 L 27.023438 33.292969 L 24.980469 33.292969 L 24.980469 31.542969 C 24.980469 31.140625 24.652344 30.816406 24.25 30.816406 L 23.082031 30.816406 C 22.679688 30.816406 22.355469 31.140625 22.355469 31.542969 L 22.355469 33.292969 L 20.3125 33.292969 L 20.3125 31.542969 C 20.3125 31.140625 19.984375 30.816406 19.582031 30.816406 L 18.414062 30.816406 C 18.011719 30.816406 17.6875 31.140625 17.6875 31.542969 L 17.6875 33.292969 L 15.644531 33.292969 L 15.644531 31.542969 C 15.644531 31.140625 15.316406 30.816406 14.914062 30.816406 L 13.746094 30.816406 C 13.34375 30.816406 13.015625 31.140625 13.015625 31.542969 L 13.015625 33.292969 L 10.828125 33.292969 L 10.828125 29.9375 L 31.835938 29.9375 Z M 31.835938 33.292969 " fill-opacity="1" fill-rule="nonzero"/><path fill="#1b7a94" d="M 34.464844 19.582031 C 34.625 19.582031 34.753906 19.449219 34.753906 19.289062 L 34.753906 14.621094 C 34.753906 14.460938 34.625 14.328125 34.464844 14.328125 C 34.300781 14.328125 34.171875 14.460938 34.171875 14.621094 L 34.171875 19.289062 C 34.171875 19.449219 34.300781 19.582031 34.464844 19.582031 Z M 34.464844 19.582031 " fill-opacity="1" fill-rule="nonzero"/><path fill="#1b7a94" d="M 34.464844 23.082031 C 33.980469 23.082031 33.585938 23.476562 33.585938 23.957031 C 33.585938 24.441406 33.980469 24.832031 34.464844 24.832031 C 34.945312 24.832031 35.339844 24.441406 35.339844 23.957031 C 35.339844 23.476562 34.945312 23.082031 34.464844 23.082031 Z M 34.464844 24.25 C 34.300781 24.25 34.171875 24.117188 34.171875 23.957031 C 34.171875 23.796875 34.300781 23.664062 34.464844 23.664062 C 34.625 23.664062 34.753906 23.796875 34.753906 23.957031 C 34.753906 24.117188 34.625 24.25 34.464844 24.25 Z M 34.464844 24.25 " fill-opacity="1" fill-rule="nonzero"/><path fill="#1b7a94" d="M 34.464844 25.417969 C 33.980469 25.417969 33.585938 25.808594 33.585938 26.292969 C 33.585938 26.773438 33.980469 27.167969 34.464844 27.167969 C 34.945312 27.167969 35.339844 26.773438 35.339844 26.292969 C 35.339844 25.808594 34.945312 25.417969 34.464844 25.417969 Z M 34.464844 26.582031 C 34.300781 26.582031 34.171875 26.453125 34.171875 26.292969 C 34.171875 26.132812 34.300781 26 34.464844 26 C 34.625 26 34.753906 26.132812 34.753906 26.292969 C 34.753906 26.453125 34.625 26.582031 34.464844 26.582031 Z M 34.464844 26.582031 " fill-opacity="1" fill-rule="nonzero"/><path fill="#1b7a94" d="M 34.464844 27.75 C 33.980469 27.75 33.585938 28.144531 33.585938 28.625 C 33.585938 29.109375 33.980469 29.5 34.464844 29.5 C 34.945312 29.5 35.339844 29.109375 35.339844 28.625 C 35.339844 28.144531 34.945312 27.75 34.464844 27.75 Z M 34.464844 28.917969 C 34.300781 28.917969 34.171875 28.789062 34.171875 28.625 C 34.171875 28.464844 34.300781 28.335938 34.464844 28.335938 C 34.625 28.335938 34.753906 28.464844 34.753906 28.625 C 34.753906 28.789062 34.625 28.917969 34.464844 28.917969 Z M 34.464844 28.917969 " fill-opacity="1" fill-rule="nonzero"/><path fill="#1b7a94" d="M 31.253906 34.460938 L 11.414062 34.460938 C 11.089844 34.460938 10.828125 34.722656 10.828125 35.046875 L 10.828125 36.503906 C 10.828125 36.824219 11.089844 37.085938 11.414062 37.085938 L 31.253906 37.085938 C 31.574219 37.085938 31.835938 36.824219 31.835938 36.503906 L 31.835938 35.046875 C 31.835938 34.722656 31.574219 34.460938 31.253906 34.460938 Z M 16.226562 35.046875 L 26.4375 35.046875 L 26.4375 35.484375 L 16.226562 35.484375 Z M 31.253906 36.503906 L 11.414062 36.503906 L 11.414062 35.046875 L 15.933594 35.046875 L 15.933594 35.628906 C 15.933594 35.710938 16 35.773438 16.082031 35.773438 L 26.585938 35.773438 C 26.664062 35.773438 26.730469 35.710938 26.730469 35.628906 L 26.730469 35.046875 L 31.253906 35.046875 Z M 31.253906 36.503906 " fill-opacity="1" fill-rule="nonzero"/><path fill="#1b7a94" d="M 16.355469 5.574219 C 16.355469 5.671875 16.304688 5.722656 16.210938 5.722656 C 16.113281 5.722656 16.0625 5.671875 16.0625 5.574219 C 16.0625 5.476562 16.113281 5.429688 16.210938 5.429688 C 16.304688 5.429688 16.355469 5.476562 16.355469 5.574219 Z M 16.355469 5.574219 " fill-opacity="1" fill-rule="nonzero"/><path fill="#1b7a94" d="M 18.644531 5.574219 C 18.644531 5.671875 18.59375 5.722656 18.496094 5.722656 C 18.398438 5.722656 18.351562 5.671875 18.351562 5.574219 C 18.351562 5.476562 18.398438 5.429688 18.496094 5.429688 C 18.59375 5.429688 18.644531 5.476562 18.644531 5.574219 Z M 18.644531 5.574219 " fill-opacity="1" fill-rule="nonzero"/><path fill="#1b7a94" d="M 17.5 5.574219 C 17.5 5.671875 17.449219 5.722656 17.351562 5.722656 C 17.253906 5.722656 17.207031 5.671875 17.207031 5.574219 C 17.207031 5.476562 17.253906 5.429688 17.351562 5.429688 C 17.449219 5.429688 17.5 5.476562 17.5 5.574219 Z M 17.5 5.574219 " fill-opacity="1" fill-rule="nonzero"/><path fill="#1b7a94" d="M 19.785156 5.574219 C 19.785156 5.671875 19.738281 5.722656 19.640625 5.722656 C 19.542969 5.722656 19.496094 5.671875 19.496094 5.574219 C 19.496094 5.476562 19.542969 5.429688 19.640625 5.429688 C 19.738281 5.429688 19.785156 5.476562 19.785156 5.574219 Z M 19.785156 5.574219 " fill-opacity="1" fill-rule="nonzero"/><path fill="#1b7a94" d="M 20.929688 5.574219 C 20.929688 5.671875 20.882812 5.722656 20.785156 5.722656 C 20.6875 5.722656 20.636719 5.671875 20.636719 5.574219 C 20.636719 5.476562 20.6875 5.429688 20.785156 5.429688 C 20.882812 5.429688 20.929688 5.476562 20.929688 5.574219 Z M 20.929688 5.574219 " fill-opacity="1" fill-rule="nonzero"/><path fill="#1b7a94" d="M 15.210938 5.574219 C 15.210938 5.671875 15.164062 5.722656 15.066406 5.722656 C 14.96875 5.722656 14.917969 5.671875 14.917969 5.574219 C 14.917969 5.476562 14.96875 5.429688 15.066406 5.429688 C 15.164062 5.429688 15.210938 5.476562 15.210938 5.574219 Z M 15.210938 5.574219 " fill-opacity="1" fill-rule="nonzero"/><path fill="#1b7a94" d="M 23.070312 5.429688 C 22.988281 5.429688 22.925781 5.492188 22.925781 5.574219 C 22.925781 5.65625 22.988281 5.722656 23.070312 5.722656 C 23.152344 5.722656 23.21875 5.65625 23.21875 5.574219 C 23.21875 5.492188 23.152344 5.429688 23.070312 5.429688 Z M 23.070312 5.429688 " fill-opacity="1" fill-rule="nonzero"/><path fill="#1b7a94" d="M 10.636719 5.574219 C 10.636719 5.671875 10.585938 5.722656 10.492188 5.722656 C 10.394531 5.722656 10.34375 5.671875 10.34375 5.574219 C 10.34375 5.476562 10.394531 5.429688 10.492188 5.429688 C 10.585938 5.429688 10.636719 5.476562 10.636719 5.574219 Z M 10.636719 5.574219 " fill-opacity="1" fill-rule="nonzero"/><path fill="#1b7a94" d="M 9.492188 5.574219 C 9.492188 5.671875 9.445312 5.722656 9.347656 5.722656 C 9.25 5.722656 9.199219 5.671875 9.199219 5.574219 C 9.199219 5.476562 9.25 5.429688 9.347656 5.429688 C 9.445312 5.429688 9.492188 5.476562 9.492188 5.574219 Z M 9.492188 5.574219 " fill-opacity="1" fill-rule="nonzero"/><path fill="#1b7a94" d="M 11.78125 5.574219 C 11.78125 5.671875 11.730469 5.722656 11.632812 5.722656 C 11.535156 5.722656 11.488281 5.671875 11.488281 5.574219 C 11.488281 5.476562 11.535156 5.429688 11.632812 5.429688 C 11.730469 5.429688 11.78125 5.476562 11.78125 5.574219 Z M 11.78125 5.574219 " fill-opacity="1" fill-rule="nonzero"/><path fill="#1b7a94" d="M 14.066406 5.574219 C 14.066406 5.671875 14.019531 5.722656 13.921875 5.722656 C 13.824219 5.722656 13.777344 5.671875 13.777344 5.574219 C 13.777344 5.476562 13.824219 5.429688 13.921875 5.429688 C 14.019531 5.429688 14.066406 5.476562 14.066406 5.574219 Z M 14.066406 5.574219 " fill-opacity="1" fill-rule="nonzero"/><path fill="#1b7a94" d="M 12.921875 5.574219 C 12.921875 5.671875 12.875 5.722656 12.777344 5.722656 C 12.679688 5.722656 12.632812 5.671875 12.632812 5.574219 C 12.632812 5.476562 12.679688 5.429688 12.777344 5.429688 C 12.875 5.429688 12.921875 5.476562 12.921875 5.574219 Z M 12.921875 5.574219 " fill-opacity="1" fill-rule="nonzero"/><path fill="#1b7a94" d="M 22.074219 5.574219 C 22.074219 5.671875 22.023438 5.722656 21.929688 5.722656 C 21.832031 5.722656 21.78125 5.671875 21.78125 5.574219 C 21.78125 5.476562 21.832031 5.429688 21.929688 5.429688 C 22.023438 5.429688 22.074219 5.476562 22.074219 5.574219 Z M 22.074219 5.574219 " fill-opacity="1" fill-rule="nonzero"/><path fill="#1b7a94" d="M 32.367188 5.574219 C 32.367188 5.671875 32.320312 5.722656 32.222656 5.722656 C 32.125 5.722656 32.074219 5.671875 32.074219 5.574219 C 32.074219 5.476562 32.125 5.429688 32.222656 5.429688 C 32.320312 5.429688 32.367188 5.476562 32.367188 5.574219 Z M 32.367188 5.574219 " fill-opacity="1" fill-rule="nonzero"/><path fill="#1b7a94" d="M 33.511719 5.574219 C 33.511719 5.671875 33.464844 5.722656 33.367188 5.722656 C 33.269531 5.722656 33.21875 5.671875 33.21875 5.574219 C 33.21875 5.476562 33.269531 5.429688 33.367188 5.429688 C 33.464844 5.429688 33.511719 5.476562 33.511719 5.574219 Z M 33.511719 5.574219 " fill-opacity="1" fill-rule="nonzero"/><path fill="#1b7a94" d="M 35.652344 5.429688 C 35.570312 5.429688 35.507812 5.492188 35.507812 5.574219 C 35.507812 5.65625 35.570312 5.722656 35.652344 5.722656 C 35.730469 5.722656 35.800781 5.65625 35.800781 5.574219 C 35.800781 5.492188 35.730469 5.429688 35.652344 5.429688 Z M 35.652344 5.429688 " fill-opacity="1" fill-rule="nonzero"/><path fill="#1b7a94" d="M 34.65625 5.574219 C 34.65625 5.671875 34.605469 5.722656 34.507812 5.722656 C 34.414062 5.722656 34.363281 5.671875 34.363281 5.574219 C 34.363281 5.476562 34.414062 5.429688 34.507812 5.429688 C 34.605469 5.429688 34.65625 5.476562 34.65625 5.574219 Z M 34.65625 5.574219 " fill-opacity="1" fill-rule="nonzero"/><path fill="#1b7a94" d="M 31.222656 5.574219 C 31.222656 5.671875 31.175781 5.722656 31.078125 5.722656 C 30.980469 5.722656 30.933594 5.671875 30.933594 5.574219 C 30.933594 5.476562 30.980469 5.429688 31.078125 5.429688 C 31.175781 5.429688 31.222656 5.476562 31.222656 5.574219 Z M 31.222656 5.574219 " fill-opacity="1" fill-rule="nonzero"/><path fill="#1b7a94" d="M 24.214844 5.429688 C 24.132812 5.429688 24.070312 5.492188 24.070312 5.574219 C 24.070312 5.65625 24.132812 5.722656 24.214844 5.722656 C 24.292969 5.722656 24.363281 5.65625 24.363281 5.574219 C 24.363281 5.492188 24.292969 5.429688 24.214844 5.429688 Z M 24.214844 5.429688 " fill-opacity="1" fill-rule="nonzero"/><path fill="#1b7a94" d="M 26.503906 5.429688 C 26.421875 5.429688 26.355469 5.492188 26.355469 5.574219 C 26.355469 5.65625 26.421875 5.722656 26.503906 5.722656 C 26.582031 5.722656 26.648438 5.65625 26.648438 5.574219 C 26.648438 5.492188 26.582031 5.429688 26.503906 5.429688 Z M 26.503906 5.429688 " fill-opacity="1" fill-rule="nonzero"/><path fill="#1b7a94" d="M 29.933594 5.429688 C 29.851562 5.429688 29.789062 5.492188 29.789062 5.574219 C 29.789062 5.65625 29.851562 5.722656 29.933594 5.722656 C 30.011719 5.722656 30.082031 5.65625 30.082031 5.574219 C 30.082031 5.492188 30.011719 5.429688 29.933594 5.429688 Z M 29.933594 5.429688 " fill-opacity="1" fill-rule="nonzero"/><path fill="#1b7a94" d="M 25.359375 5.429688 C 25.277344 5.429688 25.214844 5.492188 25.214844 5.574219 C 25.214844 5.65625 25.277344 5.722656 25.359375 5.722656 C 25.4375 5.722656 25.503906 5.65625 25.503906 5.574219 C 25.503906 5.492188 25.4375 5.429688 25.359375 5.429688 Z M 25.359375 5.429688 " fill-opacity="1" fill-rule="nonzero"/><path fill="#1b7a94" d="M 27.648438 5.429688 C 27.566406 5.429688 27.5 5.492188 27.5 5.574219 C 27.5 5.65625 27.566406 5.722656 27.648438 5.722656 C 27.726562 5.722656 27.792969 5.65625 27.792969 5.574219 C 27.792969 5.492188 27.726562 5.429688 27.648438 5.429688 Z M 27.648438 5.429688 " fill-opacity="1" fill-rule="nonzero"/><path fill="#1b7a94" d="M 28.789062 5.429688 C 28.710938 5.429688 28.644531 5.492188 28.644531 5.574219 C 28.644531 5.65625 28.710938 5.722656 28.789062 5.722656 C 28.871094 5.722656 28.9375 5.65625 28.9375 5.574219 C 28.9375 5.492188 28.871094 5.429688 28.789062 5.429688 Z M 28.789062 5.429688 " fill-opacity="1" fill-rule="nonzero"/><path fill="#1b7a94" d="M 34.753906 13.453125 C 34.753906 13.535156 34.726562 13.601562 34.667969 13.660156 C 34.613281 13.71875 34.542969 13.746094 34.464844 13.746094 C 34.382812 13.746094 34.3125 13.71875 34.257812 13.660156 C 34.199219 13.601562 34.171875 13.535156 34.171875 13.453125 C 34.171875 13.375 34.199219 13.304688 34.257812 13.246094 C 34.3125 13.191406 34.382812 13.160156 34.464844 13.160156 C 34.542969 13.160156 34.613281 13.191406 34.667969 13.246094 C 34.726562 13.304688 34.753906 13.375 34.753906 13.453125 Z M 34.753906 13.453125 " fill-opacity="1" fill-rule="nonzero"/></svg>