<svg xmlns="http://www.w3.org/2000/svg" xmlns:xlink="http://www.w3.org/1999/xlink" width="60" zoomAndPan="magnify" viewBox="0 0 45 44.999999" height="60" preserveAspectRatio="xMidYMid meet" version="1.0"><defs><clipPath id="5dd53f0ea5"><path d="M 7.046875 1.828125 L 37.796875 1.828125 L 37.796875 43.078125 L 7.046875 43.078125 Z M 7.046875 1.828125 " clip-rule="nonzero"/></clipPath></defs><rect x="-4.5" width="54" fill="#ffffff" y="-4.5" height="53.999999" fill-opacity="1"/><rect x="-4.5" width="54" fill="#ffffff" y="-4.5" height="53.999999" fill-opacity="1"/><g clip-path="url(#5dd53f0ea5)"><path fill="#1b7a94" d="M 10.394531 1.816406 C 8.535156 1.816406 7.027344 3.328125 7.027344 5.183594 L 7.027344 42.488281 C 7.027344 42.847656 7.316406 43.140625 7.675781 43.140625 L 9.808594 43.140625 C 10.078125 43.140625 10.316406 42.976562 10.410156 42.726562 L 11.640625 39.617188 L 33.3125 39.617188 L 34.542969 42.726562 C 34.640625 42.976562 34.882812 43.140625 35.144531 43.140625 L 37.277344 43.140625 C 37.636719 43.140625 37.929688 42.847656 37.929688 42.488281 L 37.929688 5.183594 C 37.929688 3.324219 36.414062 1.816406 34.558594 1.816406 Z M 9.359375 41.835938 L 8.324219 41.835938 L 8.324219 39.617188 L 10.238281 39.617188 Z M 36.628906 41.835938 L 35.59375 41.835938 L 34.714844 39.617188 L 36.628906 39.617188 Z M 36.628906 5.183594 L 36.628906 38.3125 L 8.324219 38.3125 L 8.324219 5.183594 C 8.324219 4.046875 9.25 3.121094 10.390625 3.121094 L 34.558594 3.121094 C 35.703125 3.121094 36.628906 4.046875 36.628906 5.183594 Z M 36.628906 5.183594 " fill-opacity="1" fill-rule="nonzero"/></g><path fill="#1b7a94" d="M 24.832031 28.53125 L 10.386719 28.53125 C 10.023438 28.53125 9.734375 28.824219 9.734375 29.183594 L 9.734375 35.496094 C 9.734375 35.855469 10.023438 36.148438 10.386719 36.148438 L 24.832031 36.148438 C 25.191406 36.148438 25.484375 35.855469 25.484375 35.496094 L 25.484375 29.183594 C 25.484375 28.824219 25.191406 28.53125 24.832031 28.53125 Z M 24.179688 34.84375 L 11.039062 34.84375 L 11.039062 29.835938 L 24.179688 29.835938 Z M 24.179688 34.84375 " fill-opacity="1" fill-rule="nonzero"/><path fill="#1b7a94" d="M 24.832031 6.402344 L 10.386719 6.402344 C 10.023438 6.402344 9.734375 6.691406 9.734375 7.054688 L 9.734375 26.367188 C 9.734375 26.730469 10.023438 27.019531 10.386719 27.019531 L 24.832031 27.019531 C 25.191406 27.019531 25.484375 26.730469 25.484375 26.367188 L 25.484375 7.054688 C 25.484375 6.691406 25.191406 6.402344 24.832031 6.402344 Z M 24.179688 25.714844 L 11.039062 25.714844 L 11.039062 7.703125 L 24.179688 7.703125 Z M 24.179688 25.714844 " fill-opacity="1" fill-rule="nonzero"/><path fill="#1b7a94" d="M 29.882812 10.703125 L 29.882812 21.578125 C 29.882812 21.9375 30.175781 22.230469 30.535156 22.230469 L 34.5625 22.230469 C 34.925781 22.230469 35.214844 21.9375 35.214844 21.578125 L 35.214844 10.703125 C 35.214844 10.34375 34.925781 10.050781 34.5625 10.050781 L 30.535156 10.050781 C 30.179688 10.050781 29.882812 10.34375 29.882812 10.703125 Z M 31.1875 11.355469 L 33.910156 11.355469 L 33.910156 20.925781 L 31.1875 20.925781 Z M 31.1875 11.355469 " fill-opacity="1" fill-rule="nonzero"/><path fill="#1b7a94" d="M 33.109375 23.664062 L 31.996094 23.664062 C 30.832031 23.664062 29.882812 24.613281 29.882812 25.777344 L 29.882812 26.75 C 29.882812 27.109375 30.175781 27.402344 30.535156 27.402344 L 34.5625 27.402344 C 34.925781 27.402344 35.214844 27.109375 35.214844 26.75 L 35.214844 25.777344 C 35.21875 24.613281 34.273438 23.664062 33.109375 23.664062 Z M 33.917969 26.097656 L 31.191406 26.097656 L 31.191406 25.777344 C 31.191406 25.328125 31.550781 24.96875 32 24.96875 L 33.109375 24.96875 C 33.550781 24.96875 33.917969 25.328125 33.917969 25.777344 Z M 33.917969 26.097656 " fill-opacity="1" fill-rule="nonzero"/></svg>