<svg xmlns="http://www.w3.org/2000/svg" xmlns:xlink="http://www.w3.org/1999/xlink" width="60" zoomAndPan="magnify" viewBox="0 0 45 44.999999" height="60" preserveAspectRatio="xMidYMid meet" version="1.0"><defs><clipPath id="d86e015994"><path d="M 8.648438 39 L 24 39 L 24 43.609375 L 8.648438 43.609375 Z M 8.648438 39 " clip-rule="nonzero"/></clipPath><clipPath id="de42ab3f6b"><path d="M 8.648438 15 L 24 15 L 24 39 L 8.648438 39 Z M 8.648438 15 " clip-rule="nonzero"/></clipPath><clipPath id="dc8b60f6e4"><path d="M 25 15 L 34.148438 15 L 34.148438 43.609375 L 25 43.609375 Z M 25 15 " clip-rule="nonzero"/></clipPath><clipPath id="d57ed41624"><path d="M 8.648438 1.609375 L 34.148438 1.609375 L 34.148438 14 L 8.648438 14 Z M 8.648438 1.609375 " clip-rule="nonzero"/></clipPath></defs><rect x="-4.5" width="54" fill="#ffffff" y="-4.5" height="53.999999" fill-opacity="1"/><rect x="-4.5" width="54" fill="#ffffff" y="-4.5" height="53.999999" fill-opacity="1"/><path fill="#1b7a94" d="M 28.171875 17.910156 L 30.972656 17.910156 L 30.972656 20.101562 L 28.171875 20.101562 Z M 28.171875 17.910156 " fill-opacity="1" fill-rule="nonzero"/><g clip-path="url(#d86e015994)"><path fill="#1b7a94" d="M 8.753906 39.585938 L 23.542969 39.585938 L 23.542969 43.441406 L 8.753906 43.441406 Z M 8.753906 39.585938 " fill-opacity="1" fill-rule="nonzero"/></g><g clip-path="url(#de42ab3f6b)"><path fill="#1b7a94" d="M 8.753906 38.03125 L 23.542969 38.03125 L 23.542969 15.410156 L 8.753906 15.410156 Z M 20.941406 36.988281 C 20.941406 37.417969 20.59375 37.765625 20.164062 37.765625 L 11.722656 37.765625 C 11.292969 37.765625 10.945312 37.417969 10.945312 36.988281 L 10.945312 28.546875 C 10.945312 28.117188 11.292969 27.769531 11.722656 27.769531 L 20.164062 27.769531 C 20.59375 27.769531 20.941406 28.117188 20.941406 28.546875 Z M 14.21875 21.808594 C 14.21875 22.238281 13.871094 22.585938 13.441406 22.585938 L 11.933594 22.585938 C 11.503906 22.585938 11.15625 22.238281 11.15625 21.808594 L 11.15625 20.300781 C 11.15625 19.871094 11.503906 19.523438 11.933594 19.523438 L 13.441406 19.523438 C 13.871094 19.523438 14.21875 19.871094 14.21875 20.300781 Z M 14.46875 24.558594 L 14.46875 26.066406 C 14.46875 26.492188 14.121094 26.84375 13.691406 26.84375 L 12.183594 26.84375 C 11.753906 26.84375 11.40625 26.492188 11.40625 26.066406 L 11.40625 24.558594 C 11.40625 24.128906 11.753906 23.777344 12.183594 23.777344 L 13.691406 23.777344 C 14.121094 23.777344 14.46875 24.128906 14.46875 24.558594 Z M 18.300781 23.777344 L 19.808594 23.777344 C 20.238281 23.777344 20.589844 24.128906 20.589844 24.558594 L 20.589844 26.066406 C 20.589844 26.492188 20.238281 26.84375 19.808594 26.84375 L 18.300781 26.84375 C 17.871094 26.84375 17.523438 26.492188 17.523438 26.066406 L 17.523438 24.558594 C 17.523438 24.128906 17.871094 23.777344 18.300781 23.777344 Z M 17.523438 21.808594 L 17.523438 20.300781 C 17.523438 19.871094 17.871094 19.523438 18.300781 19.523438 L 19.808594 19.523438 C 20.238281 19.523438 20.589844 19.871094 20.589844 20.300781 L 20.589844 21.808594 C 20.589844 22.238281 20.238281 22.585938 19.808594 22.585938 L 18.300781 22.585938 C 17.871094 22.585938 17.523438 22.238281 17.523438 21.808594 Z M 10.378906 17.042969 L 21.414062 17.042969 C 21.84375 17.042969 22.191406 17.390625 22.191406 17.820312 C 22.191406 18.25 21.84375 18.597656 21.414062 18.597656 L 10.378906 18.597656 C 9.945312 18.597656 9.597656 18.25 9.597656 17.820312 C 9.597656 17.390625 9.945312 17.042969 10.378906 17.042969 Z M 10.378906 17.042969 " fill-opacity="1" fill-rule="nonzero"/></g><path fill="#1b7a94" d="M 22.070312 13.855469 L 23.332031 9.46875 L 19.503906 9.46875 L 20.765625 13.855469 Z M 22.070312 13.855469 " fill-opacity="1" fill-rule="nonzero"/><path fill="#1b7a94" d="M 18.5625 7.644531 C 18.5625 7.785156 18.675781 7.902344 18.816406 7.910156 L 24.015625 7.910156 C 24.15625 7.902344 24.269531 7.785156 24.269531 7.644531 C 24.269531 7.511719 24.175781 7.421875 24.085938 7.390625 C 23.851562 7.3125 23.667969 7.132812 23.589844 6.898438 C 23.511719 6.664062 23.550781 6.410156 23.6875 6.207031 C 23.726562 6.15625 23.769531 6.070312 23.769531 5.960938 C 23.769531 5.703125 23.542969 5.496094 23.269531 5.496094 C 23.234375 5.496094 23.199219 5.5 23.15625 5.511719 C 22.882812 5.570312 22.601562 5.480469 22.414062 5.273438 C 22.226562 5.070312 22.164062 4.777344 22.246094 4.511719 C 22.28125 4.414062 22.296875 4.332031 22.296875 4.261719 C 22.296875 3.777344 21.878906 3.386719 21.371094 3.386719 C 20.859375 3.386719 20.445312 3.777344 20.445312 4.261719 C 20.445312 4.375 20.46875 4.488281 20.511719 4.589844 C 20.648438 4.902344 20.566406 5.261719 20.3125 5.484375 C 20.0625 5.707031 19.695312 5.742188 19.402344 5.570312 C 19.320312 5.523438 19.230469 5.496094 19.140625 5.496094 C 18.863281 5.496094 18.636719 5.703125 18.636719 5.960938 C 18.636719 6.101562 18.710938 6.203125 18.769531 6.265625 C 18.925781 6.425781 19.003906 6.644531 18.984375 6.867188 C 18.96875 7.089844 18.855469 7.296875 18.675781 7.429688 C 18.632812 7.460938 18.5625 7.53125 18.5625 7.644531 Z M 18.5625 7.644531 " fill-opacity="1" fill-rule="nonzero"/><path fill="#1b7a94" d="M 16.203125 33.308594 L 15.734375 33.308594 C 15.449219 33.308594 15.214844 33.542969 15.214844 33.828125 L 15.214844 36.210938 L 16.722656 36.210938 L 16.722656 33.828125 C 16.722656 33.542969 16.488281 33.308594 16.203125 33.308594 Z M 16.203125 33.308594 " fill-opacity="1" fill-rule="nonzero"/><path fill="#1b7a94" d="M 12.5 36.210938 L 13.660156 36.210938 L 13.660156 33.828125 C 13.660156 32.683594 14.589844 31.753906 15.734375 31.753906 L 16.203125 31.753906 C 17.347656 31.753906 18.277344 32.683594 18.277344 33.828125 L 18.277344 36.210938 L 19.382812 36.210938 L 19.382812 29.324219 L 12.5 29.324219 Z M 12.5 36.210938 " fill-opacity="1" fill-rule="nonzero"/><g clip-path="url(#dc8b60f6e4)"><path fill="#1b7a94" d="M 25.101562 43.441406 L 34.082031 43.441406 L 34.082031 15.410156 L 25.101562 15.410156 Z M 32.234375 36.691406 L 30.921875 36.691406 C 30.492188 36.691406 30.140625 36.34375 30.140625 35.914062 C 30.140625 35.484375 30.492188 35.132812 30.921875 35.132812 L 32.234375 35.132812 C 32.664062 35.132812 33.011719 35.484375 33.011719 35.914062 C 33.011719 36.34375 32.664062 36.691406 32.234375 36.691406 Z M 32.234375 32.933594 L 30.921875 32.933594 C 30.492188 32.933594 30.140625 32.585938 30.140625 32.15625 C 30.140625 31.726562 30.492188 31.375 30.921875 31.375 L 32.234375 31.375 C 32.664062 31.375 33.011719 31.726562 33.011719 32.15625 C 33.011719 32.585938 32.664062 32.933594 32.234375 32.933594 Z M 32.234375 29.175781 L 30.921875 29.175781 C 30.492188 29.175781 30.140625 28.824219 30.140625 28.398438 C 30.140625 27.96875 30.492188 27.617188 30.921875 27.617188 L 32.234375 27.617188 C 32.664062 27.617188 33.011719 27.96875 33.011719 28.398438 C 33.011719 28.824219 32.664062 29.175781 32.234375 29.175781 Z M 33.011719 24.640625 C 33.011719 25.070312 32.664062 25.417969 32.234375 25.417969 L 30.921875 25.417969 C 30.492188 25.417969 30.140625 25.070312 30.140625 24.640625 C 30.140625 24.210938 30.492188 23.859375 30.921875 23.859375 L 32.234375 23.859375 C 32.664062 23.859375 33.011719 24.210938 33.011719 24.640625 Z M 26.617188 17.132812 C 26.617188 16.703125 26.964844 16.355469 27.394531 16.355469 L 31.75 16.355469 C 32.179688 16.355469 32.53125 16.703125 32.53125 17.132812 L 32.53125 20.882812 C 32.53125 21.3125 32.179688 21.660156 31.75 21.660156 L 27.394531 21.660156 C 26.964844 21.660156 26.617188 21.3125 26.617188 20.882812 Z M 26.398438 23.859375 L 27.710938 23.859375 C 28.140625 23.859375 28.488281 24.210938 28.488281 24.640625 C 28.488281 25.070312 28.140625 25.417969 27.710938 25.417969 L 26.398438 25.417969 C 25.96875 25.417969 25.621094 25.070312 25.621094 24.640625 C 25.621094 24.210938 25.96875 23.859375 26.398438 23.859375 Z M 26.398438 27.808594 L 27.710938 27.808594 C 28.140625 27.808594 28.488281 28.15625 28.488281 28.585938 C 28.488281 29.015625 28.140625 29.363281 27.710938 29.363281 L 26.398438 29.363281 C 25.96875 29.363281 25.621094 29.015625 25.621094 28.585938 C 25.621094 28.15625 25.96875 27.808594 26.398438 27.808594 Z M 26.398438 31.375 L 27.710938 31.375 C 28.140625 31.375 28.488281 31.726562 28.488281 32.15625 C 28.488281 32.585938 28.140625 32.933594 27.710938 32.933594 L 26.398438 32.933594 C 25.96875 32.933594 25.621094 32.585938 25.621094 32.15625 C 25.621094 31.726562 25.96875 31.375 26.398438 31.375 Z M 26.398438 35.132812 L 27.710938 35.132812 C 28.140625 35.132812 28.488281 35.484375 28.488281 35.914062 C 28.488281 36.34375 28.140625 36.691406 27.710938 36.691406 L 26.398438 36.691406 C 25.96875 36.691406 25.621094 36.34375 25.621094 35.914062 C 25.621094 35.484375 25.96875 35.132812 26.398438 35.132812 Z M 26.398438 35.132812 " fill-opacity="1" fill-rule="nonzero"/></g><g clip-path="url(#d57ed41624)"><path fill="#1b7a94" d="M 8.753906 13.855469 L 19.148438 13.855469 L 17.789062 9.136719 C 17.316406 8.804688 17.007812 8.261719 17.007812 7.644531 C 17.007812 7.320312 17.089844 7.011719 17.246094 6.742188 C 17.140625 6.496094 17.082031 6.230469 17.082031 5.960938 C 17.082031 4.921875 17.882812 4.066406 18.90625 3.953125 C 19.0625 2.757812 20.109375 1.832031 21.371094 1.832031 C 22.65625 1.832031 23.714844 2.792969 23.839844 4.019531 C 24.695312 4.261719 25.324219 5.039062 25.324219 5.960938 C 25.324219 6.089844 25.3125 6.222656 25.285156 6.351562 C 25.625 6.683594 25.828125 7.144531 25.828125 7.644531 C 25.828125 8.261719 25.515625 8.804688 25.046875 9.136719 L 23.6875 13.855469 L 34.082031 13.855469 L 34.082031 1.632812 L 8.753906 1.632812 Z M 28.648438 9.710938 L 32.085938 9.710938 C 32.515625 9.710938 32.867188 10.058594 32.867188 10.488281 C 32.867188 10.917969 32.515625 11.265625 32.085938 11.265625 L 28.648438 11.265625 C 28.21875 11.265625 27.871094 10.917969 27.871094 10.488281 C 27.871094 10.058594 28.21875 9.710938 28.648438 9.710938 Z M 10.378906 9.710938 L 13.816406 9.710938 C 14.246094 9.710938 14.59375 10.058594 14.59375 10.488281 C 14.59375 10.917969 14.246094 11.265625 13.816406 11.265625 L 10.378906 11.265625 C 9.945312 11.265625 9.597656 10.917969 9.597656 10.488281 C 9.597656 10.058594 9.945312 9.710938 10.378906 9.710938 Z M 10.378906 9.710938 " fill-opacity="1" fill-rule="nonzero"/></g></svg>