<svg xmlns="http://www.w3.org/2000/svg" xmlns:xlink="http://www.w3.org/1999/xlink" width="60" zoomAndPan="magnify" viewBox="0 0 45 44.999999" height="60" preserveAspectRatio="xMidYMid meet" version="1.0"><defs><clipPath id="c7c5b50990"><path d="M 4.867188 2.019531 L 40.289062 2.019531 L 40.289062 42.976562 L 4.867188 42.976562 Z M 4.867188 2.019531 " clip-rule="nonzero"/></clipPath></defs><rect x="-4.5" width="54" fill="#ffffff" y="-4.5" height="53.999999" fill-opacity="1"/><rect x="-4.5" width="54" fill="#ffffff" y="-4.5" height="53.999999" fill-opacity="1"/><g clip-path="url(#c7c5b50990)"><path fill="#1b7a94" d="M 38.71875 40.390625 C 38.71875 40.949219 38.261719 41.402344 37.703125 41.402344 L 27.566406 41.402344 L 27.566406 3.59375 L 37.703125 3.59375 C 38.261719 3.59375 38.71875 4.046875 38.71875 4.605469 Z M 25.996094 31.152344 L 6.4375 31.152344 L 6.4375 4.605469 C 6.4375 4.046875 6.894531 3.59375 7.457031 3.59375 L 25.996094 3.59375 Z M 25.996094 41.402344 L 7.457031 41.402344 C 6.894531 41.402344 6.4375 40.949219 6.4375 40.390625 L 6.4375 32.726562 L 25.996094 32.726562 Z M 37.703125 2.019531 L 7.457031 2.019531 C 6.027344 2.019531 4.867188 3.179688 4.867188 4.605469 L 4.867188 40.390625 C 4.867188 41.816406 6.027344 42.976562 7.457031 42.976562 L 37.703125 42.976562 C 39.128906 42.976562 40.289062 41.816406 40.289062 40.390625 L 40.289062 4.605469 C 40.289062 3.179688 39.128906 2.019531 37.703125 2.019531 " fill-opacity="1" fill-rule="nonzero"/></g><path fill="#1b7a94" d="M 36.5625 11.03125 L 29.941406 11.03125 L 29.941406 8.648438 L 36.5625 8.648438 Z M 36.824219 7.078125 L 29.679688 7.078125 C 28.957031 7.078125 28.367188 7.664062 28.367188 8.386719 L 28.367188 11.292969 C 28.367188 12.015625 28.957031 12.601562 29.679688 12.601562 L 36.824219 12.601562 C 37.546875 12.601562 38.132812 12.015625 38.132812 11.292969 L 38.132812 8.386719 C 38.132812 7.664062 37.546875 7.078125 36.824219 7.078125 " fill-opacity="1" fill-rule="nonzero"/><path fill="#1b7a94" d="M 36.5625 26.828125 C 36.5625 26.894531 36.507812 26.949219 36.4375 26.949219 L 30.0625 26.949219 C 29.996094 26.949219 29.941406 26.894531 29.941406 26.828125 L 29.941406 16.675781 C 29.941406 16.609375 29.996094 16.554688 30.0625 16.554688 L 36.4375 16.554688 C 36.507812 16.554688 36.5625 16.609375 36.5625 16.675781 Z M 36.5625 32.003906 C 36.5625 32.070312 36.507812 32.125 36.4375 32.125 L 30.0625 32.125 C 29.996094 32.125 29.941406 32.070312 29.941406 32.003906 L 29.941406 28.644531 C 29.941406 28.578125 29.996094 28.523438 30.0625 28.523438 L 36.4375 28.523438 C 36.507812 28.523438 36.5625 28.578125 36.5625 28.644531 Z M 36.4375 14.984375 L 30.0625 14.984375 C 29.128906 14.984375 28.367188 15.742188 28.367188 16.675781 L 28.367188 26.828125 C 28.367188 27.160156 28.46875 27.472656 28.640625 27.734375 C 28.46875 28 28.367188 28.308594 28.367188 28.644531 L 28.367188 32.003906 C 28.367188 32.9375 29.128906 33.699219 30.0625 33.699219 L 36.4375 33.699219 C 37.375 33.699219 38.132812 32.9375 38.132812 32.003906 L 38.132812 28.644531 C 38.132812 28.308594 38.035156 28 37.867188 27.734375 C 38.035156 27.472656 38.132812 27.160156 38.132812 26.828125 L 38.132812 16.675781 C 38.132812 15.742188 37.375 14.984375 36.4375 14.984375 " fill-opacity="1" fill-rule="nonzero"/><path fill="#1b7a94" d="M 11.480469 24.957031 C 11.695312 25.023438 11.90625 25.09375 12.125 25.152344 C 12.191406 25.175781 12.257812 25.191406 12.328125 25.207031 C 12.472656 25.25 12.621094 25.289062 12.773438 25.324219 C 12.855469 25.34375 12.9375 25.363281 13.023438 25.382812 C 13.15625 25.414062 13.292969 25.441406 13.433594 25.46875 C 13.519531 25.488281 13.609375 25.5 13.695312 25.515625 C 13.832031 25.542969 13.964844 25.5625 14.101562 25.582031 C 14.191406 25.597656 14.28125 25.609375 14.371094 25.621094 C 14.507812 25.640625 14.648438 25.65625 14.785156 25.671875 C 14.875 25.679688 14.960938 25.6875 15.042969 25.695312 C 15.195312 25.707031 15.351562 25.71875 15.503906 25.726562 C 15.578125 25.730469 15.652344 25.738281 15.726562 25.742188 C 15.953125 25.75 16.179688 25.753906 16.410156 25.753906 C 16.644531 25.753906 16.878906 25.75 17.117188 25.738281 C 17.195312 25.734375 17.273438 25.730469 17.351562 25.726562 C 17.507812 25.714844 17.664062 25.707031 17.820312 25.691406 C 17.914062 25.683594 18.007812 25.671875 18.09375 25.660156 C 18.238281 25.644531 18.382812 25.632812 18.523438 25.609375 C 18.621094 25.597656 18.714844 25.582031 18.808594 25.570312 C 18.949219 25.546875 19.085938 25.523438 19.222656 25.5 C 19.316406 25.480469 19.410156 25.460938 19.507812 25.445312 C 19.644531 25.414062 19.78125 25.386719 19.917969 25.351562 C 20.011719 25.332031 20.101562 25.3125 20.191406 25.289062 C 20.339844 25.253906 20.484375 25.214844 20.625 25.171875 C 20.707031 25.148438 20.789062 25.128906 20.867188 25.105469 C 21.050781 25.050781 21.230469 24.988281 21.410156 24.929688 C 21.453125 24.914062 21.492188 24.902344 21.535156 24.886719 C 21.539062 24.886719 21.546875 24.882812 21.550781 24.882812 L 22.175781 26.066406 C 20.363281 26.894531 18.421875 27.316406 16.410156 27.316406 C 14.472656 27.316406 12.613281 26.929688 10.875 26.167969 Z M 16.421875 15.144531 L 20.808594 23.46875 C 20.707031 23.503906 20.605469 23.535156 20.503906 23.570312 C 20.445312 23.585938 20.386719 23.605469 20.328125 23.625 C 20.128906 23.683594 19.929688 23.738281 19.730469 23.785156 C 19.710938 23.789062 19.691406 23.792969 19.671875 23.796875 C 19.492188 23.84375 19.308594 23.882812 19.125 23.917969 C 19.0625 23.933594 18.996094 23.941406 18.925781 23.953125 C 18.792969 23.980469 18.652344 24.003906 18.515625 24.023438 C 18.4375 24.035156 18.359375 24.046875 18.285156 24.054688 C 18.152344 24.074219 18.019531 24.089844 17.890625 24.101562 C 17.8125 24.109375 17.734375 24.121094 17.65625 24.128906 C 17.515625 24.140625 17.375 24.148438 17.234375 24.15625 C 17.167969 24.160156 17.101562 24.164062 17.035156 24.171875 C 16.824219 24.179688 16.617188 24.183594 16.410156 24.183594 C 16.082031 24.183594 15.757812 24.171875 15.4375 24.144531 C 15.378906 24.144531 15.316406 24.140625 15.257812 24.136719 C 14.949219 24.109375 14.640625 24.074219 14.335938 24.027344 C 14.277344 24.019531 14.21875 24.011719 14.160156 24 C 13.847656 23.949219 13.539062 23.890625 13.230469 23.820312 C 13.226562 23.820312 13.222656 23.816406 13.21875 23.816406 C 12.910156 23.746094 12.601562 23.660156 12.296875 23.5625 C 12.265625 23.550781 12.234375 23.542969 12.199219 23.53125 Z M 10.128906 27.554688 C 12.097656 28.4375 14.210938 28.886719 16.410156 28.886719 C 18.695312 28.886719 20.898438 28.398438 22.949219 27.441406 C 23.308594 27.269531 23.589844 26.957031 23.714844 26.578125 C 23.84375 26.203125 23.808594 25.796875 23.625 25.445312 L 22.8125 23.898438 L 17.707031 14.207031 C 17.449219 13.730469 16.960938 13.433594 16.421875 13.433594 C 16.417969 13.433594 16.410156 13.433594 16.40625 13.433594 C 15.863281 13.4375 15.371094 13.742188 15.125 14.230469 L 10.714844 22.984375 L 10.378906 23.648438 L 10.003906 24.394531 L 9.414062 25.570312 C 9.230469 25.929688 9.207031 26.332031 9.339844 26.710938 C 9.476562 27.085938 9.761719 27.394531 10.128906 27.554688 " fill-opacity="1" fill-rule="nonzero"/></svg>