<svg xmlns="http://www.w3.org/2000/svg" xmlns:xlink="http://www.w3.org/1999/xlink" width="60" zoomAndPan="magnify" viewBox="0 0 45 44.999999" height="60" preserveAspectRatio="xMidYMid meet" version="1.0"><defs><clipPath id="a4ab26fa30"><path d="M 12 37 L 17 37 L 17 41.949219 L 12 41.949219 Z M 12 37 " clip-rule="nonzero"/></clipPath><clipPath id="8e058c3b99"><path d="M 26 37 L 32 37 L 32 41.949219 L 26 41.949219 Z M 26 37 " clip-rule="nonzero"/></clipPath><clipPath id="95164307cb"><path d="M 9 2.949219 L 13 2.949219 L 13 9 L 9 9 Z M 9 2.949219 " clip-rule="nonzero"/></clipPath><clipPath id="c4c4f57e42"><path d="M 32 2.949219 L 36 2.949219 L 36 9 L 32 9 Z M 32 2.949219 " clip-rule="nonzero"/></clipPath><clipPath id="f80e48a030"><path d="M 38 8 L 41.949219 8 L 41.949219 11 L 38 11 Z M 38 8 " clip-rule="nonzero"/></clipPath><clipPath id="ccdb43d820"><path d="M 36 31 L 41.949219 31 L 41.949219 38 L 36 38 Z M 36 31 " clip-rule="nonzero"/></clipPath></defs><rect x="-4.5" width="54" fill="#ffffff" y="-4.5" height="53.999999" fill-opacity="1"/><rect x="-4.5" width="54" fill="#ffffff" y="-4.5" height="53.999999" fill-opacity="1"/><g clip-path="url(#a4ab26fa30)"><path fill="#1b7a94" d="M 14.628906 42.042969 C 13.398438 42.042969 12.398438 41.042969 12.398438 39.8125 L 12.398438 38.246094 C 12.398438 38.042969 12.566406 37.875 12.769531 37.875 C 12.976562 37.875 13.140625 38.042969 13.140625 38.246094 L 13.140625 39.8125 C 13.140625 40.632812 13.808594 41.300781 14.628906 41.300781 C 15.449219 41.300781 16.117188 40.632812 16.117188 39.8125 L 16.117188 39.4375 C 16.117188 39.230469 16.285156 39.066406 16.492188 39.066406 C 16.695312 39.066406 16.863281 39.230469 16.863281 39.4375 L 16.863281 39.8125 C 16.863281 41.042969 15.859375 42.042969 14.628906 42.042969 Z M 14.628906 42.042969 " fill-opacity="1" fill-rule="nonzero"/></g><path fill="#1b7a94" d="M 12.789062 37.335938 C 12.699219 37.335938 12.609375 37.304688 12.539062 37.238281 C 12.386719 37.101562 12.375 36.867188 12.511719 36.714844 C 13.082031 36.085938 13.914062 35.535156 14.988281 35.078125 C 15.179688 34.996094 15.398438 35.085938 15.476562 35.273438 C 15.558594 35.460938 15.46875 35.679688 15.28125 35.761719 C 14.320312 36.171875 13.554688 36.671875 13.0625 37.214844 C 12.992188 37.292969 12.890625 37.335938 12.789062 37.335938 Z M 12.789062 37.335938 " fill-opacity="1" fill-rule="nonzero"/><g clip-path="url(#8e058c3b99)"><path fill="#1b7a94" d="M 29.136719 42.042969 C 27.90625 42.042969 26.90625 41.042969 26.90625 39.8125 L 26.90625 39.4375 C 26.90625 39.230469 27.070312 39.066406 27.277344 39.066406 C 27.484375 39.066406 27.648438 39.230469 27.648438 39.4375 L 27.648438 39.8125 C 27.648438 40.632812 28.316406 41.300781 29.136719 41.300781 C 29.957031 41.300781 30.625 40.632812 30.625 39.8125 L 30.625 38.246094 C 30.625 38.042969 30.792969 37.875 30.996094 37.875 C 31.203125 37.875 31.367188 38.042969 31.367188 38.246094 L 31.367188 39.8125 C 31.367188 41.042969 30.367188 42.042969 29.136719 42.042969 Z M 29.136719 42.042969 " fill-opacity="1" fill-rule="nonzero"/></g><path fill="#1b7a94" d="M 25.121094 31.628906 L 18.273438 31.628906 C 16.058594 31.628906 14.257812 29.828125 14.257812 27.613281 L 14.257812 24.484375 C 14.257812 22.269531 16.058594 20.46875 18.273438 20.46875 L 25.121094 20.46875 C 27.335938 20.46875 29.136719 22.269531 29.136719 24.484375 L 29.136719 27.613281 C 29.136719 29.828125 27.335938 31.628906 25.121094 31.628906 Z M 18.273438 21.214844 C 16.46875 21.214844 15.003906 22.679688 15.003906 24.484375 L 15.003906 27.613281 C 15.003906 29.417969 16.46875 30.886719 18.273438 30.886719 L 25.121094 30.886719 C 26.925781 30.886719 28.394531 29.417969 28.394531 27.613281 L 28.394531 24.484375 C 28.394531 22.679688 26.925781 21.214844 25.121094 21.214844 Z M 18.273438 21.214844 " fill-opacity="1" fill-rule="nonzero"/><path fill="#1b7a94" d="M 18.351562 26.050781 C 17.53125 26.050781 16.863281 25.382812 16.863281 24.5625 C 16.863281 23.742188 17.53125 23.074219 18.351562 23.074219 C 19.171875 23.074219 19.839844 23.742188 19.839844 24.5625 C 19.839844 25.382812 19.171875 26.050781 18.351562 26.050781 Z M 18.351562 23.816406 C 17.941406 23.816406 17.605469 24.152344 17.605469 24.5625 C 17.605469 24.972656 17.941406 25.304688 18.351562 25.304688 C 18.761719 25.304688 19.09375 24.972656 19.09375 24.5625 C 19.09375 24.152344 18.761719 23.816406 18.351562 23.816406 Z M 18.351562 23.816406 " fill-opacity="1" fill-rule="nonzero"/><path fill="#1b7a94" d="M 25.046875 26.050781 C 24.226562 26.050781 23.558594 25.382812 23.558594 24.5625 C 23.558594 23.742188 24.226562 23.074219 25.046875 23.074219 C 25.867188 23.074219 26.535156 23.742188 26.535156 24.5625 C 26.535156 25.382812 25.867188 26.050781 25.046875 26.050781 Z M 25.046875 23.816406 C 24.636719 23.816406 24.300781 24.152344 24.300781 24.5625 C 24.300781 24.972656 24.636719 25.304688 25.046875 25.304688 C 25.457031 25.304688 25.789062 24.972656 25.789062 24.5625 C 25.789062 24.152344 25.457031 23.816406 25.046875 23.816406 Z M 25.046875 23.816406 " fill-opacity="1" fill-rule="nonzero"/><path fill="#1b7a94" d="M 21.699219 29.210938 C 20.605469 29.210938 20.210938 28.320312 20.210938 27.722656 C 20.210938 27.519531 20.375 27.351562 20.582031 27.351562 L 22.8125 27.351562 C 23.019531 27.351562 23.1875 27.519531 23.1875 27.722656 C 23.1875 28.320312 22.789062 29.210938 21.699219 29.210938 Z M 21.039062 28.09375 C 21.128906 28.285156 21.316406 28.46875 21.699219 28.46875 C 22.082031 28.46875 22.269531 28.285156 22.359375 28.09375 Z M 21.039062 28.09375 " fill-opacity="1" fill-rule="nonzero"/><path fill="#1b7a94" d="M 27.132812 39.8125 L 22.070312 39.8125 C 21.863281 39.8125 21.699219 39.644531 21.699219 39.441406 C 21.699219 39.234375 21.863281 39.070312 22.070312 39.070312 L 27.132812 39.070312 C 27.171875 39.070312 27.210938 39.070312 27.25 39.066406 C 28.53125 39.042969 29.746094 38.652344 30.785156 37.941406 C 30.875 37.882812 30.957031 37.824219 31.039062 37.757812 C 32.667969 36.519531 33.601562 34.640625 33.601562 32.601562 L 33.601562 24.335938 C 33.601562 20.769531 30.699219 17.867188 27.132812 17.867188 L 16.636719 17.867188 C 13.070312 17.867188 10.167969 20.769531 10.167969 24.335938 L 10.167969 32.601562 C 10.167969 34.507812 11 36.304688 12.457031 37.535156 C 12.46875 37.542969 12.480469 37.554688 12.488281 37.566406 C 12.65625 37.707031 12.816406 37.828125 12.976562 37.9375 C 14.019531 38.652344 15.238281 39.042969 16.496094 39.066406 C 16.558594 39.070312 16.59375 39.066406 16.636719 39.070312 L 20.210938 39.070312 C 20.414062 39.070312 20.582031 39.234375 20.582031 39.441406 C 20.582031 39.644531 20.414062 39.8125 20.210938 39.8125 L 16.636719 39.8125 C 16.578125 39.8125 16.519531 39.8125 16.460938 39.808594 C 15.078125 39.78125 13.71875 39.347656 12.558594 38.554688 C 12.367188 38.421875 12.175781 38.277344 11.976562 38.105469 C 11.964844 38.09375 11.953125 38.085938 11.941406 38.074219 C 10.339844 36.707031 9.421875 34.710938 9.421875 32.601562 L 9.421875 24.335938 C 9.421875 20.359375 12.660156 17.121094 16.636719 17.121094 L 27.132812 17.121094 C 31.109375 17.121094 34.34375 20.359375 34.34375 24.335938 L 34.34375 32.601562 C 34.34375 34.875 33.304688 36.96875 31.492188 38.34375 C 31.402344 38.417969 31.304688 38.484375 31.207031 38.554688 C 30.046875 39.347656 28.691406 39.78125 27.285156 39.808594 C 27.246094 39.8125 27.191406 39.8125 27.132812 39.8125 Z M 27.132812 39.8125 " fill-opacity="1" fill-rule="nonzero"/><path fill="#1b7a94" d="M 36.289062 32.375 C 35.867188 32.375 35.472656 32.207031 35.175781 31.910156 C 34.882812 31.617188 34.714844 31.222656 34.714844 30.800781 L 34.714844 18.363281 C 34.714844 17.886719 34.324219 17.496094 33.847656 17.496094 L 33.601562 17.496094 C 32.984375 17.496094 32.484375 16.992188 32.484375 16.378906 C 32.484375 16.078125 32.601562 15.796875 32.816406 15.585938 C 33.019531 15.378906 33.300781 15.261719 33.601562 15.261719 L 34.902344 15.261719 C 35.210938 15.261719 35.460938 15.011719 35.460938 14.703125 C 35.460938 14.554688 35.402344 14.414062 35.296875 14.308594 C 35.191406 14.203125 35.054688 14.148438 34.902344 14.148438 L 33.601562 14.148438 C 32.984375 14.148438 32.484375 13.644531 32.484375 13.03125 C 32.484375 12.730469 32.601562 12.449219 32.816406 12.238281 C 33.019531 12.03125 33.300781 11.914062 33.601562 11.914062 L 36.773438 11.914062 C 38.511719 11.914062 39.925781 13.328125 39.925781 15.066406 L 39.925781 17.496094 C 39.925781 17.699219 39.757812 17.867188 39.550781 17.867188 C 39.347656 17.867188 39.179688 17.699219 39.179688 17.496094 L 39.179688 15.066406 C 39.179688 13.738281 38.101562 12.660156 36.773438 12.660156 L 33.601562 12.660156 C 33.5 12.660156 33.410156 12.695312 33.34375 12.765625 C 33.265625 12.839844 33.230469 12.933594 33.230469 13.03125 C 33.230469 13.234375 33.394531 13.402344 33.601562 13.402344 L 34.902344 13.402344 C 35.25 13.402344 35.578125 13.539062 35.824219 13.785156 C 36.070312 14.027344 36.203125 14.355469 36.203125 14.703125 C 36.203125 15.421875 35.621094 16.007812 34.902344 16.007812 L 33.601562 16.007812 C 33.5 16.007812 33.410156 16.042969 33.34375 16.113281 C 33.265625 16.1875 33.230469 16.28125 33.230469 16.378906 C 33.230469 16.582031 33.394531 16.75 33.601562 16.75 L 33.847656 16.75 C 34.738281 16.75 35.460938 17.476562 35.460938 18.363281 L 35.460938 30.800781 C 35.460938 31.023438 35.546875 31.230469 35.703125 31.382812 C 36.0625 31.75 36.71875 31.671875 36.988281 31.246094 L 37.605469 30.277344 C 38.636719 28.65625 39.179688 26.789062 39.179688 24.871094 L 39.179688 19.355469 C 39.179688 19.148438 39.347656 18.984375 39.550781 18.984375 C 39.757812 18.984375 39.925781 19.148438 39.925781 19.355469 L 39.925781 24.871094 C 39.925781 26.929688 39.339844 28.9375 38.234375 30.675781 L 37.617188 31.644531 C 37.328125 32.101562 36.832031 32.375 36.289062 32.375 Z M 36.289062 32.375 " fill-opacity="1" fill-rule="nonzero"/><path fill="#1b7a94" d="M 31.269531 38.421875 C 31.109375 38.421875 30.964844 38.320312 30.914062 38.160156 C 30.859375 37.988281 30.78125 37.824219 30.679688 37.664062 C 29.566406 35.863281 25.871094 34.605469 21.699219 34.605469 C 19.304688 34.605469 17.027344 35.015625 15.28125 35.761719 C 14.320312 36.171875 13.554688 36.671875 13.066406 37.214844 C 12.84375 37.449219 12.675781 37.699219 12.5625 37.957031 C 12.507812 38.09375 12.371094 38.191406 12.214844 38.191406 C 12.011719 38.191406 11.84375 38.027344 11.84375 37.824219 L 11.84375 37.820312 C 11.84375 37.765625 11.855469 37.71875 11.875 37.667969 C 12.023438 37.332031 12.238281 37.007812 12.515625 36.710938 C 13.082031 36.085938 13.914062 35.535156 14.992188 35.078125 C 16.824219 34.292969 19.207031 33.859375 21.699219 33.859375 C 26.1875 33.859375 30.050781 35.230469 31.3125 37.269531 C 31.449219 37.484375 31.550781 37.703125 31.625 37.9375 C 31.683594 38.132812 31.574219 38.34375 31.378906 38.402344 C 31.34375 38.414062 31.304688 38.421875 31.269531 38.421875 Z M 31.269531 38.421875 " fill-opacity="1" fill-rule="nonzero"/><path fill="#1b7a94" d="M 39.550781 25.304688 L 35.089844 25.304688 C 34.882812 25.304688 34.714844 25.140625 34.714844 24.933594 L 34.714844 20.46875 C 34.714844 20.265625 34.882812 20.097656 35.089844 20.097656 L 39.550781 20.097656 C 39.757812 20.097656 39.925781 20.265625 39.925781 20.46875 L 39.925781 24.933594 C 39.925781 25.140625 39.757812 25.304688 39.550781 25.304688 Z M 35.460938 24.5625 L 39.179688 24.5625 L 39.179688 20.84375 L 35.460938 20.84375 Z M 35.460938 24.5625 " fill-opacity="1" fill-rule="nonzero"/><path fill="#1b7a94" d="M 39.550781 21.957031 L 35.089844 21.957031 C 34.882812 21.957031 34.714844 21.792969 34.714844 21.585938 C 34.714844 21.382812 34.882812 21.214844 35.089844 21.214844 L 39.550781 21.214844 C 39.757812 21.214844 39.925781 21.382812 39.925781 21.585938 C 39.925781 21.792969 39.757812 21.957031 39.550781 21.957031 Z M 39.550781 21.957031 " fill-opacity="1" fill-rule="nonzero"/><path fill="#1b7a94" d="M 39.550781 21.957031 L 35.089844 21.957031 C 34.882812 21.957031 34.714844 21.792969 34.714844 21.585938 C 34.714844 21.382812 34.882812 21.214844 35.089844 21.214844 L 39.550781 21.214844 C 39.757812 21.214844 39.925781 21.382812 39.925781 21.585938 C 39.925781 21.792969 39.757812 21.957031 39.550781 21.957031 Z M 39.550781 21.957031 " fill-opacity="1" fill-rule="nonzero"/><path fill="#1b7a94" d="M 39.550781 24.191406 L 35.089844 24.191406 C 34.882812 24.191406 34.714844 24.023438 34.714844 23.816406 C 34.714844 23.613281 34.882812 23.445312 35.089844 23.445312 L 39.550781 23.445312 C 39.757812 23.445312 39.925781 23.613281 39.925781 23.816406 C 39.925781 24.023438 39.757812 24.191406 39.550781 24.191406 Z M 39.550781 24.191406 " fill-opacity="1" fill-rule="nonzero"/><path fill="#1b7a94" d="M 39.550781 23.074219 L 35.089844 23.074219 C 34.882812 23.074219 34.714844 22.90625 34.714844 22.703125 C 34.714844 22.496094 34.882812 22.332031 35.089844 22.332031 L 39.550781 22.332031 C 39.757812 22.332031 39.925781 22.496094 39.925781 22.703125 C 39.925781 22.90625 39.757812 23.074219 39.550781 23.074219 Z M 39.550781 23.074219 " fill-opacity="1" fill-rule="nonzero"/><path fill="#1b7a94" d="M 7.476562 32.375 C 6.9375 32.375 6.441406 32.101562 6.152344 31.644531 L 5.535156 30.675781 C 4.429688 28.9375 3.84375 26.929688 3.84375 24.871094 L 3.84375 15.066406 C 3.84375 13.328125 5.257812 11.914062 6.992188 11.914062 L 10.167969 11.914062 C 10.46875 11.914062 10.75 12.03125 10.957031 12.246094 C 11.164062 12.449219 11.28125 12.730469 11.28125 13.03125 C 11.28125 13.644531 10.78125 14.148438 10.167969 14.148438 L 8.863281 14.148438 C 8.714844 14.148438 8.574219 14.203125 8.46875 14.308594 C 8.363281 14.414062 8.308594 14.554688 8.308594 14.703125 C 8.308594 15.011719 8.558594 15.261719 8.863281 15.261719 L 10.167969 15.261719 C 10.46875 15.261719 10.75 15.378906 10.957031 15.59375 C 11.164062 15.796875 11.28125 16.078125 11.28125 16.378906 C 11.28125 16.992188 10.78125 17.496094 10.167969 17.496094 L 9.921875 17.496094 C 9.441406 17.496094 9.050781 17.886719 9.050781 18.363281 L 9.050781 26.792969 C 9.050781 27 8.882812 27.164062 8.679688 27.164062 C 8.472656 27.164062 8.308594 27 8.308594 26.792969 L 8.308594 18.363281 C 8.308594 17.476562 9.03125 16.75 9.921875 16.75 L 10.167969 16.75 C 10.371094 16.75 10.539062 16.582031 10.539062 16.378906 C 10.539062 16.28125 10.5 16.1875 10.433594 16.121094 C 10.359375 16.042969 10.265625 16.007812 10.167969 16.007812 L 8.863281 16.007812 C 8.148438 16.007812 7.5625 15.421875 7.5625 14.703125 C 7.5625 14.355469 7.699219 14.027344 7.945312 13.785156 C 8.1875 13.539062 8.515625 13.402344 8.863281 13.402344 L 10.167969 13.402344 C 10.371094 13.402344 10.539062 13.234375 10.539062 13.03125 C 10.539062 12.933594 10.5 12.839844 10.433594 12.773438 C 10.359375 12.695312 10.265625 12.660156 10.167969 12.660156 L 6.992188 12.660156 C 5.667969 12.660156 4.585938 13.738281 4.585938 15.066406 L 4.585938 24.871094 C 4.585938 26.789062 5.132812 28.65625 6.164062 30.277344 L 6.78125 31.246094 C 6.929688 31.488281 7.191406 31.628906 7.476562 31.628906 C 7.699219 31.628906 7.90625 31.542969 8.058594 31.386719 C 8.222656 31.230469 8.308594 31.023438 8.308594 30.800781 L 8.308594 28.652344 C 8.308594 28.449219 8.472656 28.28125 8.679688 28.28125 C 8.882812 28.28125 9.050781 28.449219 9.050781 28.652344 L 9.050781 30.800781 C 9.050781 31.222656 8.886719 31.617188 8.585938 31.914062 C 8.296875 32.207031 7.902344 32.375 7.476562 32.375 Z M 7.476562 32.375 " fill-opacity="1" fill-rule="nonzero"/><path fill="#1b7a94" d="M 8.679688 25.304688 L 4.214844 25.304688 C 4.011719 25.304688 3.84375 25.140625 3.84375 24.933594 L 3.84375 20.46875 C 3.84375 20.265625 4.011719 20.097656 4.214844 20.097656 L 8.679688 20.097656 C 8.882812 20.097656 9.050781 20.265625 9.050781 20.46875 L 9.050781 24.933594 C 9.050781 25.140625 8.882812 25.304688 8.679688 25.304688 Z M 4.585938 24.5625 L 8.308594 24.5625 L 8.308594 20.84375 L 4.585938 20.84375 Z M 4.585938 24.5625 " fill-opacity="1" fill-rule="nonzero"/><path fill="#1b7a94" d="M 8.679688 21.957031 L 4.214844 21.957031 C 4.011719 21.957031 3.84375 21.792969 3.84375 21.585938 C 3.84375 21.382812 4.011719 21.214844 4.214844 21.214844 L 8.679688 21.214844 C 8.882812 21.214844 9.050781 21.382812 9.050781 21.585938 C 9.050781 21.792969 8.882812 21.957031 8.679688 21.957031 Z M 8.679688 21.957031 " fill-opacity="1" fill-rule="nonzero"/><path fill="#1b7a94" d="M 8.679688 21.957031 L 4.214844 21.957031 C 4.011719 21.957031 3.84375 21.792969 3.84375 21.585938 C 3.84375 21.382812 4.011719 21.214844 4.214844 21.214844 L 8.679688 21.214844 C 8.882812 21.214844 9.050781 21.382812 9.050781 21.585938 C 9.050781 21.792969 8.882812 21.957031 8.679688 21.957031 Z M 8.679688 21.957031 " fill-opacity="1" fill-rule="nonzero"/><path fill="#1b7a94" d="M 8.679688 24.191406 L 4.214844 24.191406 C 4.011719 24.191406 3.84375 24.023438 3.84375 23.816406 C 3.84375 23.613281 4.011719 23.445312 4.214844 23.445312 L 8.679688 23.445312 C 8.882812 23.445312 9.050781 23.613281 9.050781 23.816406 C 9.050781 24.023438 8.882812 24.191406 8.679688 24.191406 Z M 8.679688 24.191406 " fill-opacity="1" fill-rule="nonzero"/><path fill="#1b7a94" d="M 8.679688 23.074219 L 4.214844 23.074219 C 4.011719 23.074219 3.84375 22.90625 3.84375 22.703125 C 3.84375 22.496094 4.011719 22.332031 4.214844 22.332031 L 8.679688 22.332031 C 8.882812 22.332031 9.050781 22.496094 9.050781 22.703125 C 9.050781 22.90625 8.882812 23.074219 8.679688 23.074219 Z M 8.679688 23.074219 " fill-opacity="1" fill-rule="nonzero"/><path fill="#1b7a94" d="M 30.253906 13.402344 L 24.671875 13.402344 C 24.46875 13.402344 24.300781 13.234375 24.300781 13.03125 L 24.300781 3.730469 C 24.300781 3.527344 24.46875 3.359375 24.671875 3.359375 L 27.277344 3.359375 C 27.484375 3.359375 27.648438 3.527344 27.648438 3.730469 C 27.648438 3.9375 27.484375 4.105469 27.277344 4.105469 L 25.046875 4.105469 L 25.046875 12.660156 L 29.882812 12.660156 L 29.882812 4.105469 L 29.136719 4.105469 C 28.933594 4.105469 28.765625 3.9375 28.765625 3.730469 C 28.765625 3.527344 28.933594 3.359375 29.136719 3.359375 L 30.253906 3.359375 C 30.457031 3.359375 30.625 3.527344 30.625 3.730469 L 30.625 13.03125 C 30.625 13.234375 30.457031 13.402344 30.253906 13.402344 Z M 30.253906 13.402344 " fill-opacity="1" fill-rule="nonzero"/><path fill="#1b7a94" d="M 30.253906 13.402344 L 24.671875 13.402344 C 24.46875 13.402344 24.300781 13.234375 24.300781 13.03125 L 24.300781 6.335938 C 24.300781 6.128906 24.46875 5.964844 24.671875 5.964844 L 30.253906 5.964844 C 30.457031 5.964844 30.625 6.128906 30.625 6.335938 L 30.625 13.03125 C 30.625 13.234375 30.457031 13.402344 30.253906 13.402344 Z M 25.046875 12.660156 L 29.882812 12.660156 L 29.882812 6.707031 L 25.046875 6.707031 Z M 25.046875 12.660156 " fill-opacity="1" fill-rule="nonzero"/><path fill="#1b7a94" d="M 22.441406 13.402344 L 17.976562 13.402344 C 17.773438 13.402344 17.605469 13.234375 17.605469 13.03125 L 17.605469 12.867188 C 17.605469 12.660156 17.773438 12.496094 17.976562 12.496094 C 18.105469 12.496094 18.21875 12.558594 18.285156 12.660156 L 22.070312 12.660156 L 22.070312 8.9375 L 18.351562 8.9375 L 18.351562 10.613281 C 18.351562 10.820312 18.183594 10.984375 17.976562 10.984375 C 17.773438 10.984375 17.605469 10.820312 17.605469 10.613281 L 17.605469 8.566406 C 17.605469 8.363281 17.773438 8.195312 17.976562 8.195312 L 22.441406 8.195312 C 22.648438 8.195312 22.8125 8.363281 22.8125 8.566406 L 22.8125 13.03125 C 22.8125 13.234375 22.648438 13.402344 22.441406 13.402344 Z M 22.441406 13.402344 " fill-opacity="1" fill-rule="nonzero"/><path fill="#1b7a94" d="M 22.441406 13.402344 L 17.976562 13.402344 C 17.773438 13.402344 17.605469 13.234375 17.605469 13.03125 L 17.605469 12.867188 C 17.605469 12.660156 17.773438 12.496094 17.976562 12.496094 C 18.105469 12.496094 18.21875 12.558594 18.285156 12.660156 L 22.070312 12.660156 L 22.070312 8.9375 L 18.351562 8.9375 L 18.351562 10.613281 C 18.351562 10.820312 18.183594 10.984375 17.976562 10.984375 C 17.773438 10.984375 17.605469 10.820312 17.605469 10.613281 L 17.605469 8.566406 C 17.605469 8.363281 17.773438 8.195312 17.976562 8.195312 L 22.441406 8.195312 C 22.648438 8.195312 22.8125 8.363281 22.8125 8.566406 L 22.8125 13.03125 C 22.8125 13.234375 22.648438 13.402344 22.441406 13.402344 Z M 22.441406 13.402344 " fill-opacity="1" fill-rule="nonzero"/><path fill="#1b7a94" d="M 22.8125 8.9375 L 17.605469 8.9375 C 17.402344 8.9375 17.234375 8.773438 17.234375 8.566406 L 17.234375 6.707031 C 17.234375 6.503906 17.402344 6.335938 17.605469 6.335938 L 22.8125 6.335938 C 23.019531 6.335938 23.1875 6.503906 23.1875 6.707031 L 23.1875 8.566406 C 23.1875 8.773438 23.019531 8.9375 22.8125 8.9375 Z M 17.976562 8.195312 L 22.441406 8.195312 L 22.441406 7.078125 L 17.976562 7.078125 Z M 17.976562 8.195312 " fill-opacity="1" fill-rule="nonzero"/><path fill="#1b7a94" d="M 15.710938 11.914062 C 15.667969 11.914062 15.625 11.90625 15.582031 11.890625 C 15.390625 11.820312 15.292969 11.605469 15.363281 11.414062 C 15.371094 11.394531 15.375 11.378906 15.375 11.355469 L 15.375 10.800781 L 15.003906 10.800781 L 15.003906 11.355469 C 15.003906 11.378906 15.003906 11.394531 15.011719 11.414062 C 15.085938 11.605469 14.988281 11.820312 14.792969 11.890625 C 14.601562 11.964844 14.386719 11.867188 14.316406 11.675781 C 14.277344 11.570312 14.257812 11.46875 14.257812 11.355469 L 14.257812 10.425781 C 14.257812 10.222656 14.425781 10.054688 14.628906 10.054688 L 15.746094 10.054688 C 15.953125 10.054688 16.117188 10.222656 16.117188 10.425781 L 16.117188 11.355469 C 16.117188 11.46875 16.101562 11.570312 16.0625 11.671875 C 16.003906 11.824219 15.863281 11.914062 15.710938 11.914062 Z M 15.710938 11.914062 " fill-opacity="1" fill-rule="nonzero"/><path fill="#1b7a94" d="M 16.078125 11.914062 C 15.976562 11.914062 15.878906 11.875 15.804688 11.796875 C 15.648438 11.625 15.558594 11.402344 15.558594 11.171875 C 15.558594 10.660156 15.976562 10.242188 16.492188 10.242188 L 17.421875 10.242188 C 17.625 10.242188 17.792969 10.40625 17.792969 10.613281 L 17.792969 11.542969 C 17.792969 11.75 17.625 11.914062 17.421875 11.914062 C 17.214844 11.914062 17.046875 11.75 17.046875 11.542969 L 17.046875 10.984375 L 16.492188 10.984375 C 16.386719 10.984375 16.304688 11.070312 16.304688 11.171875 C 16.304688 11.226562 16.328125 11.269531 16.351562 11.289062 C 16.492188 11.441406 16.480469 11.675781 16.332031 11.816406 C 16.257812 11.882812 16.167969 11.914062 16.078125 11.914062 Z M 16.078125 11.914062 " fill-opacity="1" fill-rule="nonzero"/><path fill="#1b7a94" d="M 18.761719 11.914062 C 18.671875 11.914062 18.582031 11.882812 18.511719 11.816406 C 18.359375 11.675781 18.351562 11.441406 18.488281 11.289062 C 18.511719 11.269531 18.535156 11.226562 18.535156 11.171875 C 18.535156 11.070312 18.453125 10.984375 18.351562 10.984375 L 17.792969 10.984375 L 17.792969 11.542969 C 17.792969 11.75 17.625 11.914062 17.421875 11.914062 C 17.214844 11.914062 17.046875 11.75 17.046875 11.542969 L 17.046875 10.613281 C 17.046875 10.40625 17.214844 10.242188 17.421875 10.242188 L 18.351562 10.242188 C 18.863281 10.242188 19.28125 10.660156 19.28125 11.171875 C 19.28125 11.402344 19.191406 11.625 19.035156 11.796875 C 18.960938 11.875 18.863281 11.914062 18.761719 11.914062 Z M 18.761719 11.914062 " fill-opacity="1" fill-rule="nonzero"/><path fill="#1b7a94" d="M 15.746094 10.800781 L 14.628906 10.800781 C 14.425781 10.800781 14.257812 10.632812 14.257812 10.425781 L 14.257812 9.496094 C 14.257812 8.984375 14.675781 8.566406 15.1875 8.566406 C 15.699219 8.566406 16.117188 8.984375 16.117188 9.496094 L 16.117188 10.425781 C 16.117188 10.632812 15.953125 10.800781 15.746094 10.800781 Z M 15.003906 10.054688 L 15.375 10.054688 L 15.375 9.496094 C 15.375 9.394531 15.292969 9.3125 15.1875 9.3125 C 15.085938 9.3125 15.003906 9.394531 15.003906 9.496094 Z M 15.003906 10.054688 " fill-opacity="1" fill-rule="nonzero"/><path fill="#1b7a94" d="M 16.492188 13.402344 C 13.179688 13.402344 13.140625 11.617188 13.140625 11.542969 C 13.140625 11.335938 13.308594 11.171875 13.515625 11.171875 L 19.464844 11.171875 C 19.671875 11.171875 19.839844 11.335938 19.839844 11.542969 C 19.839844 11.59375 19.816406 12.773438 18.070312 13.226562 C 17.621094 13.34375 17.089844 13.402344 16.492188 13.402344 Z M 14.050781 11.914062 C 14.296875 12.238281 14.921875 12.660156 16.492188 12.660156 C 17.027344 12.660156 17.496094 12.609375 17.882812 12.507812 C 18.472656 12.355469 18.773438 12.117188 18.929688 11.914062 Z M 14.050781 11.914062 " fill-opacity="1" fill-rule="nonzero"/><path fill="#1b7a94" d="M 34.902344 16.007812 L 26.160156 16.007812 C 25.957031 16.007812 25.789062 15.839844 25.789062 15.632812 C 25.789062 15.429688 25.957031 15.261719 26.160156 15.261719 L 34.902344 15.261719 C 35.054688 15.261719 35.191406 15.207031 35.296875 15.101562 C 35.402344 14.996094 35.460938 14.855469 35.460938 14.703125 C 35.460938 14.398438 35.210938 14.148438 34.902344 14.148438 L 8.863281 14.148438 C 8.714844 14.148438 8.574219 14.203125 8.46875 14.308594 C 8.363281 14.414062 8.308594 14.554688 8.308594 14.703125 C 8.308594 15.011719 8.558594 15.261719 8.863281 15.261719 L 24.300781 15.261719 C 24.507812 15.261719 24.671875 15.429688 24.671875 15.632812 C 24.671875 15.839844 24.507812 16.007812 24.300781 16.007812 L 8.863281 16.007812 C 8.148438 16.007812 7.5625 15.421875 7.5625 14.703125 C 7.5625 14.355469 7.699219 14.027344 7.945312 13.785156 C 8.1875 13.539062 8.515625 13.402344 8.863281 13.402344 L 34.902344 13.402344 C 35.621094 13.402344 36.203125 13.988281 36.203125 14.703125 C 36.203125 15.054688 36.070312 15.378906 35.824219 15.625 C 35.578125 15.871094 35.25 16.007812 34.902344 16.007812 Z M 34.902344 16.007812 " fill-opacity="1" fill-rule="nonzero"/><path fill="#1b7a94" d="M 20.582031 11.542969 C 20.375 11.542969 20.210938 11.375 20.210938 11.171875 L 20.210938 9.683594 C 20.210938 9.476562 20.375 9.3125 20.582031 9.3125 C 20.789062 9.3125 20.953125 9.476562 20.953125 9.683594 L 20.953125 11.171875 C 20.953125 11.375 20.789062 11.542969 20.582031 11.542969 Z M 20.582031 11.542969 " fill-opacity="1" fill-rule="nonzero"/><path fill="#1b7a94" d="M 21.324219 10.800781 L 19.839844 10.800781 C 19.632812 10.800781 19.464844 10.632812 19.464844 10.425781 C 19.464844 10.222656 19.632812 10.054688 19.839844 10.054688 L 21.324219 10.054688 C 21.53125 10.054688 21.699219 10.222656 21.699219 10.425781 C 21.699219 10.632812 21.53125 10.800781 21.324219 10.800781 Z M 21.324219 10.800781 " fill-opacity="1" fill-rule="nonzero"/><path fill="#1b7a94" d="M 4.863281 5.511719 C 4.757812 5.511719 4.652344 5.46875 4.578125 5.382812 L 4.089844 4.804688 C 3.960938 4.648438 3.976562 4.414062 4.136719 4.28125 C 4.292969 4.148438 4.527344 4.167969 4.660156 4.324219 L 5.148438 4.902344 C 5.277344 5.058594 5.261719 5.292969 5.101562 5.425781 C 5.03125 5.484375 4.949219 5.511719 4.863281 5.511719 Z M 4.863281 5.511719 " fill-opacity="1" fill-rule="nonzero"/><path fill="#1b7a94" d="M 11.300781 10.054688 C 11.199219 10.054688 11.101562 10.015625 11.027344 9.933594 L 8.460938 7.117188 L 8.042969 8.582031 C 8.003906 8.710938 7.898438 8.8125 7.765625 8.84375 C 7.632812 8.871094 7.492188 8.824219 7.402344 8.71875 L 5.425781 6.382812 C 5.292969 6.226562 5.3125 5.992188 5.472656 5.859375 C 5.628906 5.726562 5.863281 5.746094 5.996094 5.902344 L 7.519531 7.707031 L 7.929688 6.269531 C 7.96875 6.140625 8.070312 6.042969 8.203125 6.011719 C 8.335938 5.980469 8.472656 6.023438 8.5625 6.121094 L 11.578125 9.433594 C 11.714844 9.585938 11.703125 9.820312 11.550781 9.957031 C 11.480469 10.023438 11.390625 10.054688 11.300781 10.054688 Z M 11.300781 10.054688 " fill-opacity="1" fill-rule="nonzero"/><g clip-path="url(#95164307cb)"><path fill="#1b7a94" d="M 12.503906 8.851562 C 12.371094 8.851562 12.242188 8.777344 12.175781 8.652344 L 9.464844 3.535156 C 9.371094 3.351562 9.4375 3.128906 9.621094 3.03125 C 9.800781 2.933594 10.027344 3.003906 10.125 3.1875 L 12.832031 8.304688 C 12.929688 8.484375 12.859375 8.710938 12.679688 8.808594 C 12.625 8.835938 12.5625 8.851562 12.503906 8.851562 Z M 12.503906 8.851562 " fill-opacity="1" fill-rule="nonzero"/></g><path fill="#1b7a94" d="M 6.179688 10.054688 C 6.144531 10.054688 6.101562 10.050781 6.0625 10.035156 L 3.355469 9.132812 C 3.160156 9.066406 3.054688 8.855469 3.117188 8.660156 C 3.183594 8.46875 3.394531 8.359375 3.589844 8.425781 L 6.300781 9.332031 C 6.496094 9.394531 6.601562 9.605469 6.535156 9.800781 C 6.484375 9.957031 6.335938 10.054688 6.179688 10.054688 Z M 6.179688 10.054688 " fill-opacity="1" fill-rule="nonzero"/><path fill="#1b7a94" d="M 40.125 5.511719 C 40.042969 5.511719 39.957031 5.484375 39.886719 5.425781 C 39.730469 5.292969 39.710938 5.058594 39.84375 4.902344 L 40.332031 4.324219 C 40.460938 4.167969 40.699219 4.148438 40.855469 4.28125 C 41.011719 4.414062 41.03125 4.648438 40.898438 4.804688 L 40.410156 5.382812 C 40.335938 5.46875 40.234375 5.511719 40.125 5.511719 Z M 40.125 5.511719 " fill-opacity="1" fill-rule="nonzero"/><path fill="#1b7a94" d="M 33.6875 10.054688 C 33.597656 10.054688 33.507812 10.023438 33.4375 9.957031 C 33.285156 9.820312 33.273438 9.585938 33.414062 9.433594 L 36.425781 6.121094 C 36.515625 6.023438 36.652344 5.980469 36.785156 6.011719 C 36.917969 6.042969 37.023438 6.140625 37.058594 6.269531 L 37.46875 7.707031 L 38.996094 5.902344 C 39.128906 5.746094 39.363281 5.726562 39.519531 5.859375 C 39.675781 5.992188 39.695312 6.226562 39.5625 6.382812 L 37.585938 8.71875 C 37.5 8.824219 37.359375 8.871094 37.226562 8.839844 C 37.089844 8.8125 36.984375 8.710938 36.945312 8.578125 L 36.527344 7.117188 L 33.964844 9.933594 C 33.890625 10.015625 33.789062 10.054688 33.6875 10.054688 Z M 33.6875 10.054688 " fill-opacity="1" fill-rule="nonzero"/><g clip-path="url(#c4c4f57e42)"><path fill="#1b7a94" d="M 32.484375 8.851562 C 32.425781 8.851562 32.367188 8.835938 32.3125 8.808594 C 32.128906 8.710938 32.058594 8.484375 32.15625 8.304688 L 34.867188 3.1875 C 34.960938 3.003906 35.1875 2.933594 35.367188 3.03125 C 35.550781 3.128906 35.621094 3.351562 35.523438 3.535156 L 32.8125 8.652344 C 32.746094 8.777344 32.617188 8.851562 32.484375 8.851562 Z M 32.484375 8.851562 " fill-opacity="1" fill-rule="nonzero"/></g><g clip-path="url(#f80e48a030)"><path fill="#1b7a94" d="M 38.808594 10.054688 C 38.652344 10.054688 38.507812 9.957031 38.457031 9.800781 C 38.390625 9.605469 38.496094 9.394531 38.691406 9.332031 L 41.402344 8.425781 C 41.597656 8.359375 41.804688 8.46875 41.871094 8.660156 C 41.9375 8.855469 41.832031 9.066406 41.636719 9.132812 L 38.925781 10.035156 C 38.886719 10.050781 38.847656 10.054688 38.808594 10.054688 Z M 38.808594 10.054688 " fill-opacity="1" fill-rule="nonzero"/></g><path fill="#1b7a94" d="M 6.402344 40.554688 C 6.199219 40.554688 6.03125 40.394531 6.027344 40.191406 C 6.027344 40.191406 6.027344 40.1875 6.027344 40.1875 C 6.027344 40.183594 6.027344 40.183594 6.027344 40.183594 C 6.027344 40.132812 6 38.910156 4.75 38.492188 C 4.597656 38.441406 4.496094 38.300781 4.496094 38.140625 C 4.496094 37.976562 4.597656 37.835938 4.75 37.785156 C 5.996094 37.371094 6.027344 36.148438 6.027344 36.089844 C 6.03125 35.886719 6.195312 35.71875 6.402344 35.71875 C 6.605469 35.71875 6.769531 35.882812 6.773438 36.085938 C 6.773438 36.089844 6.773438 36.089844 6.773438 36.089844 C 6.773438 36.140625 6.800781 37.367188 8.050781 37.785156 C 8.203125 37.835938 8.308594 37.976562 8.308594 38.140625 C 8.308594 38.300781 8.203125 38.441406 8.050781 38.492188 C 6.804688 38.910156 6.773438 40.128906 6.773438 40.1875 C 6.773438 40.390625 6.605469 40.554688 6.402344 40.554688 Z M 5.6875 38.140625 C 6.003906 38.363281 6.234375 38.632812 6.402344 38.914062 C 6.566406 38.632812 6.796875 38.363281 7.113281 38.140625 C 6.796875 37.914062 6.566406 37.644531 6.402344 37.363281 C 6.234375 37.644531 6.003906 37.914062 5.6875 38.140625 Z M 5.6875 38.140625 " fill-opacity="1" fill-rule="nonzero"/><g clip-path="url(#ccdb43d820)"><path fill="#1b7a94" d="M 39.132812 37.207031 C 38.929688 37.207031 38.761719 37.042969 38.761719 36.835938 C 38.761719 36.773438 38.730469 35.28125 37.203125 34.773438 C 37.050781 34.722656 36.949219 34.578125 36.949219 34.417969 C 36.949219 34.257812 37.050781 34.117188 37.203125 34.066406 C 38.746094 33.550781 38.761719 32.015625 38.761719 32 C 38.761719 31.796875 38.929688 31.628906 39.132812 31.628906 C 39.339844 31.628906 39.503906 31.796875 39.503906 32 C 39.507812 32.0625 39.539062 33.558594 41.066406 34.066406 C 41.214844 34.117188 41.320312 34.257812 41.320312 34.417969 C 41.320312 34.578125 41.214844 34.722656 41.066406 34.773438 C 39.523438 35.285156 39.503906 36.820312 39.503906 36.835938 C 39.503906 37.042969 39.339844 37.207031 39.132812 37.207031 Z M 38.171875 34.417969 C 38.617188 34.710938 38.925781 35.089844 39.132812 35.472656 C 39.339844 35.089844 39.648438 34.710938 40.09375 34.417969 C 39.648438 34.125 39.339844 33.75 39.132812 33.367188 C 38.925781 33.75 38.617188 34.125 38.171875 34.417969 Z M 38.171875 34.417969 " fill-opacity="1" fill-rule="nonzero"/></g></svg>