<svg xmlns="http://www.w3.org/2000/svg" xmlns:xlink="http://www.w3.org/1999/xlink" width="60" zoomAndPan="magnify" viewBox="0 0 45 44.999999" height="60" preserveAspectRatio="xMidYMid meet" version="1.0"><defs><clipPath id="a2f7acd7a7"><path d="M 7.925781 3.003906 L 37.175781 3.003906 L 37.175781 42 L 7.925781 42 Z M 7.925781 3.003906 " clip-rule="nonzero"/></clipPath></defs><rect x="-4.5" width="54" fill="#ffffff" y="-4.5" height="53.999999" fill-opacity="1"/><rect x="-4.5" width="54" fill="#ffffff" y="-4.5" height="53.999999" fill-opacity="1"/><g clip-path="url(#a2f7acd7a7)"><path fill="#1b7a94" d="M 11.082031 2.988281 C 9.328125 2.988281 7.90625 4.417969 7.90625 6.167969 L 7.90625 41.347656 C 7.90625 41.691406 8.179688 41.964844 8.519531 41.964844 L 10.527344 41.964844 C 10.785156 41.964844 11.007812 41.808594 11.097656 41.574219 L 12.257812 38.640625 L 32.695312 38.640625 L 33.855469 41.574219 C 33.953125 41.808594 34.175781 41.964844 34.425781 41.964844 L 36.433594 41.964844 C 36.777344 41.964844 37.050781 41.691406 37.050781 41.347656 L 37.050781 6.167969 C 37.050781 4.414062 35.625 2.988281 33.875 2.988281 Z M 10.105469 40.734375 L 9.132812 40.734375 L 9.132812 38.640625 L 10.933594 38.640625 Z M 35.824219 40.734375 L 34.847656 40.734375 L 34.019531 38.640625 L 35.824219 38.640625 Z M 35.824219 6.167969 L 35.824219 37.410156 L 9.132812 37.410156 L 9.132812 6.167969 C 9.132812 5.09375 10.003906 4.21875 11.078125 4.21875 L 33.875 4.21875 C 34.953125 4.21875 35.824219 5.09375 35.824219 6.167969 Z M 35.824219 6.167969 " fill-opacity="1" fill-rule="nonzero"/></g><path fill="#1b7a94" d="M 24.699219 28.1875 L 11.074219 28.1875 C 10.734375 28.1875 10.460938 28.460938 10.460938 28.800781 L 10.460938 34.753906 C 10.460938 35.09375 10.734375 35.367188 11.074219 35.367188 L 24.699219 35.367188 C 25.039062 35.367188 25.316406 35.09375 25.316406 34.753906 L 25.316406 28.800781 C 25.316406 28.460938 25.039062 28.1875 24.699219 28.1875 Z M 24.085938 34.140625 L 11.6875 34.140625 L 11.6875 29.417969 L 24.085938 29.417969 Z M 24.085938 34.140625 " fill-opacity="1" fill-rule="nonzero"/><path fill="#1b7a94" d="M 24.699219 7.316406 L 11.074219 7.316406 C 10.734375 7.316406 10.460938 7.589844 10.460938 7.929688 L 10.460938 26.144531 C 10.460938 26.484375 10.734375 26.761719 11.074219 26.761719 L 24.699219 26.761719 C 25.039062 26.761719 25.316406 26.484375 25.316406 26.144531 L 25.316406 7.929688 C 25.316406 7.589844 25.039062 7.316406 24.699219 7.316406 Z M 24.085938 25.53125 L 11.6875 25.53125 L 11.6875 8.542969 L 24.085938 8.542969 Z M 24.085938 25.53125 " fill-opacity="1" fill-rule="nonzero"/><path fill="#1b7a94" d="M 29.464844 11.371094 L 29.464844 21.628906 C 29.464844 21.96875 29.738281 22.242188 30.078125 22.242188 L 33.878906 22.242188 C 34.21875 22.242188 34.492188 21.96875 34.492188 21.628906 L 34.492188 11.371094 C 34.492188 11.03125 34.21875 10.757812 33.878906 10.757812 L 30.078125 10.757812 C 29.742188 10.757812 29.464844 11.03125 29.464844 11.371094 Z M 30.691406 11.988281 L 33.261719 11.988281 L 33.261719 21.015625 L 30.691406 21.015625 Z M 30.691406 11.988281 " fill-opacity="1" fill-rule="nonzero"/><path fill="#1b7a94" d="M 32.503906 23.597656 L 31.453125 23.597656 C 30.355469 23.597656 29.464844 24.488281 29.464844 25.589844 L 29.464844 26.507812 C 29.464844 26.847656 29.738281 27.121094 30.078125 27.121094 L 33.878906 27.121094 C 34.21875 27.121094 34.492188 26.847656 34.492188 26.507812 L 34.492188 25.589844 C 34.496094 24.488281 33.601562 23.597656 32.503906 23.597656 Z M 33.265625 25.890625 L 30.695312 25.890625 L 30.695312 25.589844 C 30.695312 25.167969 31.035156 24.824219 31.460938 24.824219 L 32.503906 24.824219 C 32.921875 24.824219 33.265625 25.167969 33.265625 25.589844 Z M 33.265625 25.890625 " fill-opacity="1" fill-rule="nonzero"/></svg>