<svg xmlns="http://www.w3.org/2000/svg" xmlns:xlink="http://www.w3.org/1999/xlink" width="60" zoomAndPan="magnify" viewBox="0 0 45 44.999999" height="60" preserveAspectRatio="xMidYMid meet" version="1.0"><defs><clipPath id="323f20ddc7"><path d="M 11.550781 2.023438 L 35.550781 2.023438 L 35.550781 43 L 11.550781 43 Z M 11.550781 2.023438 " clip-rule="nonzero"/></clipPath></defs><rect x="-4.5" width="54" fill="#ffffff" y="-4.5" height="53.999999" fill-opacity="1"/><rect x="-4.5" width="54" fill="#ffffff" y="-4.5" height="53.999999" fill-opacity="1"/><path fill="#1b7a94" d="M 15.464844 34.570312 L 25.777344 34.570312 L 25.777344 37.015625 L 15.464844 37.015625 Z M 15.464844 34.570312 " fill-opacity="1" fill-rule="nonzero"/><g clip-path="url(#323f20ddc7)"><path fill="#1b7a94" d="M 12.628906 42.960938 L 15.039062 42.960938 L 15.039062 42.027344 L 31.8125 42.027344 L 31.8125 42.960938 L 34.222656 42.960938 L 34.222656 42.027344 L 35.300781 42.027344 L 35.300781 2.023438 L 11.550781 2.023438 L 11.550781 42.027344 L 12.628906 42.027344 Z M 26.195312 37.433594 L 15.046875 37.433594 L 15.046875 34.152344 L 26.195312 34.152344 Z M 33.832031 14.804688 L 33.832031 15.921875 L 32.714844 15.921875 L 32.714844 14.804688 Z M 32.714844 14.246094 L 32.714844 13.128906 L 33.832031 13.128906 L 33.832031 14.246094 Z M 33.832031 16.480469 L 33.832031 17.597656 L 32.714844 17.597656 L 32.714844 16.480469 Z M 33.832031 18.15625 L 33.832031 19.273438 L 32.714844 19.273438 L 32.714844 18.15625 Z M 29.363281 9.566406 L 33.832031 9.566406 L 33.832031 10.542969 L 29.363281 10.542969 Z M 31.039062 17.597656 L 31.039062 16.480469 L 32.15625 16.480469 L 32.15625 17.597656 Z M 32.15625 18.15625 L 32.15625 19.273438 L 31.039062 19.273438 L 31.039062 18.15625 Z M 31.039062 15.921875 L 31.039062 14.804688 L 32.15625 14.804688 L 32.15625 15.921875 Z M 31.039062 14.246094 L 31.039062 13.128906 L 32.15625 13.128906 L 32.15625 14.246094 Z M 29.363281 13.128906 L 30.480469 13.128906 L 30.480469 14.246094 L 29.363281 14.246094 Z M 29.363281 14.804688 L 30.480469 14.804688 L 30.480469 15.921875 L 29.363281 15.921875 Z M 29.363281 16.480469 L 30.480469 16.480469 L 30.480469 17.597656 L 29.363281 17.597656 Z M 29.363281 18.15625 L 30.480469 18.15625 L 30.480469 19.273438 L 29.363281 19.273438 Z M 29.363281 22.617188 L 33.832031 22.617188 L 33.832031 26.601562 L 29.363281 26.601562 Z M 13.648438 4.117188 L 27.59375 4.117188 L 27.59375 30.054688 L 13.648438 30.054688 Z M 13.648438 4.117188 " fill-opacity="1" fill-rule="nonzero"/></g><path fill="#1b7a94" d="M 29.992188 23.335938 L 30.898438 23.335938 L 30.898438 25.882812 L 29.992188 25.882812 Z M 29.992188 23.335938 " fill-opacity="1" fill-rule="nonzero"/><path fill="#1b7a94" d="M 14.464844 9.902344 L 26.835938 9.902344 L 26.835938 10.324219 L 14.464844 10.324219 Z M 14.464844 9.902344 " fill-opacity="1" fill-rule="nonzero"/><path fill="#1b7a94" d="M 16.429688 9.15625 L 16.429688 6.460938 C 16.429688 6.117188 16.25 5.820312 15.996094 5.695312 L 15.996094 5.210938 L 15.304688 5.210938 L 15.304688 5.695312 C 15.050781 5.820312 14.871094 6.117188 14.871094 6.460938 L 14.871094 9.15625 C 14.871094 9.609375 16.429688 9.609375 16.429688 9.15625 Z M 16.429688 9.15625 " fill-opacity="1" fill-rule="nonzero"/><path fill="#1b7a94" d="M 18.929688 9.15625 L 18.929688 6.460938 C 18.929688 6.117188 18.75 5.820312 18.496094 5.695312 L 18.496094 5.210938 L 17.804688 5.210938 L 17.804688 5.695312 C 17.550781 5.820312 17.371094 6.117188 17.371094 6.460938 L 17.371094 9.15625 C 17.371094 9.609375 18.929688 9.609375 18.929688 9.15625 Z M 18.929688 9.15625 " fill-opacity="1" fill-rule="nonzero"/><path fill="#1b7a94" d="M 21.429688 9.15625 L 21.429688 6.460938 C 21.429688 6.117188 21.25 5.820312 20.996094 5.695312 L 20.996094 5.210938 L 20.304688 5.210938 L 20.304688 5.695312 C 20.050781 5.820312 19.871094 6.117188 19.871094 6.460938 L 19.871094 9.15625 C 19.871094 9.609375 21.429688 9.609375 21.429688 9.15625 Z M 21.429688 9.15625 " fill-opacity="1" fill-rule="nonzero"/><path fill="#1b7a94" d="M 23.929688 9.15625 L 23.929688 6.460938 C 23.929688 6.117188 23.75 5.820312 23.496094 5.695312 L 23.496094 5.210938 L 22.804688 5.210938 L 22.804688 5.695312 C 22.550781 5.820312 22.371094 6.117188 22.371094 6.460938 L 22.371094 9.15625 C 22.371094 9.609375 23.929688 9.609375 23.929688 9.15625 Z M 23.929688 9.15625 " fill-opacity="1" fill-rule="nonzero"/><path fill="#1b7a94" d="M 26.425781 9.15625 L 26.425781 6.460938 C 26.425781 6.117188 26.246094 5.820312 25.996094 5.695312 L 25.996094 5.210938 L 25.304688 5.210938 L 25.304688 5.695312 C 25.050781 5.820312 24.871094 6.117188 24.871094 6.460938 L 24.871094 9.15625 C 24.871094 9.609375 26.425781 9.609375 26.425781 9.15625 Z M 26.425781 9.15625 " fill-opacity="1" fill-rule="nonzero"/><path fill="#1b7a94" d="M 14.464844 16.136719 L 26.835938 16.136719 L 26.835938 16.554688 L 14.464844 16.554688 Z M 14.464844 16.136719 " fill-opacity="1" fill-rule="nonzero"/><path fill="#1b7a94" d="M 15.304688 11.445312 L 15.304688 11.929688 C 15.050781 12.050781 14.871094 12.347656 14.871094 12.695312 L 14.871094 15.386719 C 14.871094 15.84375 16.429688 15.84375 16.429688 15.386719 L 16.429688 12.695312 C 16.429688 12.347656 16.25 12.050781 15.996094 11.929688 L 15.996094 11.445312 Z M 15.304688 11.445312 " fill-opacity="1" fill-rule="nonzero"/><path fill="#1b7a94" d="M 17.804688 11.445312 L 17.804688 11.929688 C 17.550781 12.050781 17.371094 12.347656 17.371094 12.695312 L 17.371094 15.386719 C 17.371094 15.84375 18.929688 15.84375 18.929688 15.386719 L 18.929688 12.695312 C 18.929688 12.347656 18.75 12.050781 18.496094 11.929688 L 18.496094 11.445312 Z M 17.804688 11.445312 " fill-opacity="1" fill-rule="nonzero"/><path fill="#1b7a94" d="M 20.304688 11.445312 L 20.304688 11.929688 C 20.050781 12.050781 19.871094 12.347656 19.871094 12.695312 L 19.871094 15.386719 C 19.871094 15.84375 21.429688 15.84375 21.429688 15.386719 L 21.429688 12.695312 C 21.429688 12.347656 21.25 12.050781 20.996094 11.929688 L 20.996094 11.445312 Z M 20.304688 11.445312 " fill-opacity="1" fill-rule="nonzero"/><path fill="#1b7a94" d="M 22.804688 11.445312 L 22.804688 11.929688 C 22.550781 12.050781 22.371094 12.347656 22.371094 12.695312 L 22.371094 15.386719 C 22.371094 15.84375 23.929688 15.84375 23.929688 15.386719 L 23.929688 12.695312 C 23.929688 12.347656 23.75 12.050781 23.496094 11.929688 L 23.496094 11.445312 Z M 22.804688 11.445312 " fill-opacity="1" fill-rule="nonzero"/><path fill="#1b7a94" d="M 25.304688 11.445312 L 25.304688 11.929688 C 25.050781 12.050781 24.871094 12.347656 24.871094 12.695312 L 24.871094 15.386719 C 24.871094 15.84375 26.425781 15.84375 26.425781 15.386719 L 26.425781 12.695312 C 26.425781 12.347656 26.246094 12.050781 25.996094 11.929688 L 25.996094 11.445312 Z M 25.304688 11.445312 " fill-opacity="1" fill-rule="nonzero"/><path fill="#1b7a94" d="M 14.464844 22.367188 L 26.835938 22.367188 L 26.835938 22.785156 L 14.464844 22.785156 Z M 14.464844 22.367188 " fill-opacity="1" fill-rule="nonzero"/><path fill="#1b7a94" d="M 15.304688 17.675781 L 15.304688 18.160156 C 15.050781 18.285156 14.871094 18.582031 14.871094 18.925781 L 14.871094 21.617188 C 14.871094 22.074219 16.429688 22.074219 16.429688 21.617188 L 16.429688 18.925781 C 16.429688 18.582031 16.25 18.285156 15.996094 18.160156 L 15.996094 17.675781 Z M 15.304688 17.675781 " fill-opacity="1" fill-rule="nonzero"/><path fill="#1b7a94" d="M 17.804688 17.675781 L 17.804688 18.160156 C 17.550781 18.285156 17.371094 18.582031 17.371094 18.925781 L 17.371094 21.617188 C 17.371094 22.074219 18.929688 22.074219 18.929688 21.617188 L 18.929688 18.925781 C 18.929688 18.582031 18.75 18.285156 18.496094 18.160156 L 18.496094 17.675781 Z M 17.804688 17.675781 " fill-opacity="1" fill-rule="nonzero"/><path fill="#1b7a94" d="M 20.304688 17.675781 L 20.304688 18.160156 C 20.050781 18.285156 19.871094 18.582031 19.871094 18.925781 L 19.871094 21.617188 C 19.871094 22.074219 21.429688 22.074219 21.429688 21.617188 L 21.429688 18.925781 C 21.429688 18.582031 21.25 18.285156 20.996094 18.160156 L 20.996094 17.675781 Z M 20.304688 17.675781 " fill-opacity="1" fill-rule="nonzero"/><path fill="#1b7a94" d="M 22.804688 17.675781 L 22.804688 18.160156 C 22.550781 18.285156 22.371094 18.582031 22.371094 18.925781 L 22.371094 21.617188 C 22.371094 22.074219 23.929688 22.074219 23.929688 21.617188 L 23.929688 18.925781 C 23.929688 18.582031 23.75 18.285156 23.496094 18.160156 L 23.496094 17.675781 Z M 22.804688 17.675781 " fill-opacity="1" fill-rule="nonzero"/><path fill="#1b7a94" d="M 25.304688 17.675781 L 25.304688 18.160156 C 25.050781 18.285156 24.871094 18.582031 24.871094 18.925781 L 24.871094 21.617188 C 24.871094 22.074219 26.425781 22.074219 26.425781 21.617188 L 26.425781 18.925781 C 26.425781 18.582031 26.246094 18.285156 25.996094 18.160156 L 25.996094 17.675781 Z M 25.304688 17.675781 " fill-opacity="1" fill-rule="nonzero"/><path fill="#1b7a94" d="M 14.464844 28.597656 L 26.835938 28.597656 L 26.835938 29.019531 L 14.464844 29.019531 Z M 14.464844 28.597656 " fill-opacity="1" fill-rule="nonzero"/><path fill="#1b7a94" d="M 15.304688 23.90625 L 15.304688 24.390625 C 15.050781 24.515625 14.871094 24.8125 14.871094 25.160156 L 14.871094 27.851562 C 14.871094 28.304688 16.429688 28.304688 16.429688 27.851562 L 16.429688 25.160156 C 16.429688 24.8125 16.25 24.515625 15.996094 24.390625 L 15.996094 23.90625 Z M 15.304688 23.90625 " fill-opacity="1" fill-rule="nonzero"/><path fill="#1b7a94" d="M 17.804688 23.90625 L 17.804688 24.390625 C 17.550781 24.515625 17.371094 24.8125 17.371094 25.160156 L 17.371094 27.851562 C 17.371094 28.304688 18.929688 28.304688 18.929688 27.851562 L 18.929688 25.160156 C 18.929688 24.8125 18.75 24.515625 18.496094 24.390625 L 18.496094 23.90625 Z M 17.804688 23.90625 " fill-opacity="1" fill-rule="nonzero"/><path fill="#1b7a94" d="M 20.304688 23.90625 L 20.304688 24.390625 C 20.050781 24.515625 19.871094 24.8125 19.871094 25.160156 L 19.871094 27.851562 C 19.871094 28.304688 21.429688 28.304688 21.429688 27.851562 L 21.429688 25.160156 C 21.429688 24.8125 21.25 24.515625 20.996094 24.390625 L 20.996094 23.90625 Z M 20.304688 23.90625 " fill-opacity="1" fill-rule="nonzero"/><path fill="#1b7a94" d="M 22.804688 23.90625 L 22.804688 24.390625 C 22.550781 24.515625 22.371094 24.8125 22.371094 25.160156 L 22.371094 27.851562 C 22.371094 28.304688 23.929688 28.304688 23.929688 27.851562 L 23.929688 25.160156 C 23.929688 24.8125 23.75 24.515625 23.496094 24.390625 L 23.496094 23.90625 Z M 22.804688 23.90625 " fill-opacity="1" fill-rule="nonzero"/><path fill="#1b7a94" d="M 25.304688 23.90625 L 25.304688 24.390625 C 25.050781 24.515625 24.871094 24.8125 24.871094 25.160156 L 24.871094 27.851562 C 24.871094 28.304688 26.425781 28.304688 26.425781 27.851562 L 26.425781 25.160156 C 26.425781 24.8125 26.246094 24.515625 25.996094 24.390625 L 25.996094 23.90625 Z M 25.304688 23.90625 " fill-opacity="1" fill-rule="nonzero"/></svg>